<svg width="523" height="135" viewBox="0 0 523 135" fill="none" xmlns="http://www.w3.org/2000/svg">
<path d="M45.2195 42.9948V55.1769H25.9774V61.9601H39.8206V73.5192H25.9774V92H10.6113V42.9948H45.2195ZM80.4641 59.7452C79.8642 58.7762 79.0106 58.0379 77.9031 57.5303C76.7956 56.9765 75.4575 56.6997 73.8886 56.6997C70.9353 56.6997 68.6512 57.6687 67.0361 59.6068C65.4211 61.4987 64.6136 64.1058 64.6136 67.4282C64.6136 71.2582 65.5134 74.1191 67.313 76.011C69.1126 77.9029 71.8813 78.8489 75.619 78.8489C79.1721 78.8489 82.033 77.4184 84.2018 74.5575H71.9505V63.6905H96.9376V79.0565C94.815 82.7019 91.8848 85.8397 88.1471 88.47C84.4094 91.054 79.6797 92.3461 73.9578 92.3461C68.8819 92.3461 64.4521 91.3078 60.6682 89.2313C56.9306 87.1087 54.0466 84.1555 52.0162 80.3717C50.032 76.5878 49.0399 72.2733 49.0399 67.4282C49.0399 62.5831 50.032 58.2686 52.0162 54.4848C54.0466 50.7009 56.9306 47.7708 60.6682 45.6943C64.4059 43.5716 68.7896 42.5103 73.8193 42.5103C80.2334 42.5103 85.4477 44.0562 89.4622 47.1478C93.5229 50.2395 95.9224 54.4386 96.6607 59.7452H80.4641ZM142.548 59.8144C142.548 62.9061 141.833 65.7209 140.402 68.2588C138.972 70.7506 136.849 72.7348 134.034 74.2114C131.266 75.688 127.897 76.4263 123.929 76.4263H117.838V92H102.472V42.9948H123.929C129.927 42.9948 134.519 44.5176 137.703 47.5631C140.933 50.6086 142.548 54.6924 142.548 59.8144ZM122.198 64.3135C125.382 64.3135 126.974 62.8138 126.974 59.8144C126.974 56.815 125.382 55.3154 122.198 55.3154H117.838V64.3135H122.198ZM197.667 42.9948V55.1769H184.655V92H169.289V55.1769H156.414V42.9948H197.667ZM239.627 72.1349C239.627 73.1962 239.558 74.2114 239.419 75.1804H214.709C214.94 78.549 216.347 80.2332 218.931 80.2332C220.593 80.2332 221.792 79.4718 222.531 77.9491H238.796C238.243 80.7177 237.066 83.2095 235.266 85.4244C233.513 87.5932 231.275 89.3236 228.552 90.6157C225.876 91.8616 222.923 92.4845 219.693 92.4845C215.817 92.4845 212.356 91.677 209.31 90.0619C206.311 88.4469 203.958 86.1397 202.25 83.1403C200.589 80.0948 199.758 76.5417 199.758 72.481C199.758 68.4203 200.589 64.8903 202.25 61.8909C203.958 58.8454 206.311 56.5151 209.31 54.9001C212.356 53.285 215.817 52.4775 219.693 52.4775C223.569 52.4775 227.007 53.285 230.006 54.9001C233.051 56.469 235.405 58.73 237.066 61.6833C238.773 64.6365 239.627 68.1204 239.627 72.1349ZM224.053 68.4665C224.053 67.1744 223.638 66.2054 222.807 65.5594C221.977 64.8672 220.939 64.5211 219.693 64.5211C216.97 64.5211 215.378 65.8362 214.917 68.4665H224.053ZM242.41 72.481C242.41 68.3742 243.102 64.8211 244.487 61.8217C245.917 58.7762 247.855 56.469 250.301 54.9001C252.747 53.285 255.492 52.4775 258.538 52.4775C261.076 52.4775 263.267 53.0081 265.113 54.0695C266.959 55.0846 268.366 56.492 269.335 58.2917V52.962H284.632V92H269.335V86.6703C268.366 88.47 266.959 89.9004 265.113 90.9618C263.267 91.9769 261.076 92.4845 258.538 92.4845C255.492 92.4845 252.747 91.7001 250.301 90.1312C247.855 88.5161 245.917 86.2089 244.487 83.2095C243.102 80.164 242.41 76.5878 242.41 72.481ZM269.335 72.481C269.335 70.4045 268.805 68.7895 267.743 67.6359C266.682 66.4823 265.321 65.9054 263.66 65.9054C261.998 65.9054 260.637 66.4823 259.576 67.6359C258.515 68.7895 257.984 70.4045 257.984 72.481C257.984 74.5575 258.515 76.1725 259.576 77.3261C260.637 78.4797 261.998 79.0565 263.66 79.0565C265.321 79.0565 266.682 78.4797 267.743 77.3261C268.805 76.1725 269.335 74.5575 269.335 72.481ZM343.652 52.6851C348.636 52.6851 352.489 54.1848 355.211 57.1842C357.98 60.1836 359.364 64.2443 359.364 69.3663V92H344.067V71.3043C344.067 69.6431 343.56 68.3511 342.545 67.4282C341.576 66.4592 340.261 65.9747 338.599 65.9747C336.892 65.9747 335.554 66.4592 334.585 67.4282C333.616 68.3511 333.131 69.6431 333.131 71.3043V92H317.834V71.3043C317.834 69.6431 317.327 68.3511 316.312 67.4282C315.343 66.4592 314.028 65.9747 312.366 65.9747C310.659 65.9747 309.321 66.4592 308.352 67.4282C307.383 68.3511 306.898 69.6431 306.898 71.3043V92H291.532V52.962H306.898V58.2224C308.006 56.5612 309.505 55.2231 311.397 54.2079C313.335 53.1927 315.596 52.6851 318.181 52.6851C320.995 52.6851 323.487 53.3081 325.656 54.554C327.825 55.7537 329.555 57.4611 330.847 59.676C332.278 57.6456 334.1 55.9844 336.315 54.6924C338.53 53.3542 340.976 52.6851 343.652 52.6851Z" fill="#5021FF"/>
<path d="M398.201 42.9948C403.323 42.9948 407.799 44.0331 411.629 46.1096C415.505 48.1861 418.481 51.0701 420.558 54.7616C422.634 58.4532 423.673 62.6523 423.673 67.359C423.673 72.0196 422.634 76.2187 420.558 79.9564C418.481 83.694 415.505 86.6473 411.629 88.816C407.799 90.9387 403.323 92 398.201 92H377.782V42.9948H398.201ZM396.817 78.2952C400.278 78.2952 403.023 77.3492 405.053 75.4573C407.084 73.5654 408.099 70.866 408.099 67.359C408.099 63.852 407.084 61.1526 405.053 59.2607C403.023 57.3688 400.278 56.4228 396.817 56.4228H393.148V78.2952H396.817ZM467.013 72.1349C467.013 73.1962 466.944 74.2114 466.806 75.1804H442.096C442.326 78.549 443.734 80.2332 446.318 80.2332C447.979 80.2332 449.179 79.4718 449.917 77.9491H466.183C465.629 80.7177 464.452 83.2095 462.653 85.4244C460.899 87.5932 458.661 89.3236 455.939 90.6157C453.262 91.8616 450.309 92.4845 447.079 92.4845C443.203 92.4845 439.742 91.677 436.697 90.0619C433.697 88.4469 431.344 86.1397 429.637 83.1403C427.975 80.0948 427.145 76.5417 427.145 72.481C427.145 68.4203 427.975 64.8903 429.637 61.8909C431.344 58.8454 433.697 56.5151 436.697 54.9001C439.742 53.285 443.203 52.4775 447.079 52.4775C450.955 52.4775 454.393 53.285 457.392 54.9001C460.438 56.469 462.791 58.73 464.452 61.6833C466.16 64.6365 467.013 68.1204 467.013 72.1349ZM451.44 68.4665C451.44 67.1744 451.024 66.2054 450.194 65.5594C449.363 64.8672 448.325 64.5211 447.079 64.5211C444.357 64.5211 442.765 65.8362 442.303 68.4665H451.44ZM491.669 77.3954L497.899 52.962H514.234L501.221 92H482.048L469.035 52.962H485.37L491.669 77.3954Z" fill="#444444"/>
</svg>
