<svg width="120" height="40" viewBox="0 0 120 40" fill="none" xmlns="http://www.w3.org/2000/svg">
<rect x="0.5" y="0.5" width="119" height="39" rx="5.5" fill="black"/>
<rect x="0.5" y="0.5" width="119" height="39" rx="5.5" stroke="#A6A6A6"/>
<path d="M17.8051 19.4617L8.08984 30.0059C8.09076 30.0078 8.09076 30.0106 8.09167 30.0125C8.39005 31.1574 9.41203 32 10.6256 32C11.1111 32 11.5664 31.8656 11.957 31.6305L11.988 31.6118L22.9232 25.1593L17.8051 19.4617Z" fill="#EA4335"/>
<path d="M27.6332 17.6662L27.624 17.6597L22.9029 14.8612L17.584 19.7013L22.922 25.1582L27.6177 22.3878C28.4407 21.9324 29.0001 21.045 29.0001 20.0223C29.0001 19.0052 28.4489 18.1225 27.6332 17.6662Z" fill="#FBBC04"/>
<path d="M8.08942 9.99331C8.03102 10.2135 8 10.4449 8 10.6838V29.3163C8 29.5552 8.03102 29.7866 8.09034 30.0059L18.1386 19.7313L8.08942 9.99331Z" fill="#4285F4"/>
<path d="M17.8762 19.9999L22.904 14.8594L11.9815 8.38354C11.5846 8.13999 11.1211 8.00003 10.6256 8.00003C9.41197 8.00003 8.38816 8.8445 8.08978 9.99037C8.08978 9.9913 8.08887 9.99224 8.08887 9.99317L17.8762 19.9999Z" fill="#34A853"/>
<path d="M38.058 8.621C38.59 8.621 39.0497 8.72133 39.437 8.922C39.829 9.118 40.1277 9.40033 40.333 9.769C40.543 10.1377 40.648 10.5717 40.648 11.071C40.648 11.5703 40.543 12.0043 40.333 12.373C40.1277 12.737 39.829 13.017 39.437 13.213C39.0497 13.4043 38.59 13.5 38.058 13.5H36.539V8.621H38.058ZM38.058 12.975C38.688 12.975 39.1687 12.8093 39.5 12.478C39.8313 12.142 39.997 11.673 39.997 11.071C39.997 10.4643 39.829 9.99067 39.493 9.65C39.1617 9.30933 38.6833 9.139 38.058 9.139H37.176V12.975H38.058ZM42.1252 8.621V13.5H41.4882V8.621H42.1252ZM44.7579 13.549C44.4359 13.549 44.1465 13.493 43.8899 13.381C43.6379 13.2643 43.4395 13.1057 43.2949 12.905C43.1502 12.6997 43.0755 12.464 43.0709 12.198H43.7499C43.7732 12.4267 43.8665 12.6203 44.0299 12.779C44.1979 12.933 44.4405 13.01 44.7579 13.01C45.0612 13.01 45.2992 12.9353 45.4719 12.786C45.6492 12.632 45.7379 12.436 45.7379 12.198C45.7379 12.0113 45.6865 11.8597 45.5839 11.743C45.4812 11.6263 45.3529 11.5377 45.1989 11.477C45.0449 11.4163 44.8372 11.351 44.5759 11.281C44.2539 11.197 43.9949 11.113 43.7989 11.029C43.6075 10.945 43.4419 10.8143 43.3019 10.637C43.1665 10.455 43.0989 10.2123 43.0989 9.909C43.0989 9.643 43.1665 9.40733 43.3019 9.202C43.4372 8.99667 43.6262 8.838 43.8689 8.726C44.1162 8.614 44.3985 8.558 44.7159 8.558C45.1732 8.558 45.5465 8.67233 45.8359 8.901C46.1299 9.12967 46.2955 9.433 46.3329 9.811H45.6329C45.6095 9.62433 45.5115 9.461 45.3389 9.321C45.1662 9.17633 44.9375 9.104 44.6529 9.104C44.3869 9.104 44.1699 9.174 44.0019 9.314C43.8339 9.44933 43.7499 9.64067 43.7499 9.888C43.7499 10.0653 43.7989 10.21 43.8969 10.322C43.9995 10.434 44.1232 10.5203 44.2679 10.581C44.4172 10.637 44.6249 10.7023 44.8909 10.777C45.2129 10.8657 45.4719 10.9543 45.6679 11.043C45.8639 11.127 46.0319 11.26 46.1719 11.442C46.3119 11.6193 46.3819 11.862 46.3819 12.17C46.3819 12.408 46.3189 12.632 46.1929 12.842C46.0669 13.052 45.8802 13.2223 45.6329 13.353C45.3855 13.4837 45.0939 13.549 44.7579 13.549ZM50.5813 10.049C50.5813 10.455 50.4413 10.7933 50.1613 11.064C49.8859 11.33 49.4636 11.463 48.8943 11.463H47.9563V13.5H47.3193V8.621H48.8943C49.4449 8.621 49.8626 8.754 50.1473 9.02C50.4366 9.286 50.5813 9.629 50.5813 10.049ZM48.8943 10.938C49.2489 10.938 49.5103 10.861 49.6783 10.707C49.8463 10.553 49.9303 10.3337 49.9303 10.049C49.9303 9.447 49.5849 9.146 48.8943 9.146H47.9563V10.938H48.8943ZM53.585 13.549C53.1323 13.549 52.7193 13.444 52.346 13.234C51.9727 13.0193 51.6763 12.723 51.457 12.345C51.2423 11.9623 51.135 11.533 51.135 11.057C51.135 10.581 51.2423 10.154 51.457 9.776C51.6763 9.39333 51.9727 9.097 52.346 8.887C52.7193 8.67233 53.1323 8.565 53.585 8.565C54.0423 8.565 54.4577 8.67233 54.831 8.887C55.2043 9.097 55.4983 9.391 55.713 9.769C55.9277 10.147 56.035 10.5763 56.035 11.057C56.035 11.5377 55.9277 11.967 55.713 12.345C55.4983 12.723 55.2043 13.0193 54.831 13.234C54.4577 13.444 54.0423 13.549 53.585 13.549ZM53.585 12.996C53.9257 12.996 54.2313 12.9167 54.502 12.758C54.7773 12.5993 54.992 12.373 55.146 12.079C55.3047 11.785 55.384 11.4443 55.384 11.057C55.384 10.665 55.3047 10.3243 55.146 10.035C54.992 9.741 54.7797 9.51467 54.509 9.356C54.2383 9.19733 53.9303 9.118 53.585 9.118C53.2397 9.118 52.9317 9.19733 52.661 9.356C52.3903 9.51467 52.1757 9.741 52.017 10.035C51.863 10.3243 51.786 10.665 51.786 11.057C51.786 11.4443 51.863 11.785 52.017 12.079C52.1757 12.373 52.3903 12.5993 52.661 12.758C52.9363 12.9167 53.2443 12.996 53.585 12.996ZM60.7119 13.5H60.0749L57.5129 9.615V13.5H56.8759V8.614H57.5129L60.0749 12.492V8.614H60.7119V13.5ZM62.4348 8.621V13.5H61.7978V8.621H62.4348ZM65.9634 10.987C66.1408 11.015 66.3018 11.0873 66.4464 11.204C66.5958 11.3207 66.7124 11.4653 66.7964 11.638C66.8851 11.8107 66.9294 11.995 66.9294 12.191C66.9294 12.4383 66.8664 12.6623 66.7404 12.863C66.6144 13.059 66.4301 13.2153 66.1874 13.332C65.9494 13.444 65.6671 13.5 65.3404 13.5H63.5204V8.621H65.2704C65.6018 8.621 65.8841 8.677 66.1174 8.789C66.3508 8.89633 66.5258 9.04333 66.6424 9.23C66.7591 9.41667 66.8174 9.62667 66.8174 9.86C66.8174 10.1493 66.7381 10.3897 66.5794 10.581C66.4254 10.7677 66.2201 10.903 65.9634 10.987ZM64.1574 10.728H65.2284C65.5271 10.728 65.7581 10.658 65.9214 10.518C66.0848 10.378 66.1664 10.1843 66.1664 9.937C66.1664 9.68967 66.0848 9.496 65.9214 9.356C65.7581 9.216 65.5224 9.146 65.2144 9.146H64.1574V10.728ZM65.2844 12.975C65.6018 12.975 65.8491 12.9003 66.0264 12.751C66.2038 12.6017 66.2924 12.394 66.2924 12.128C66.2924 11.8573 66.1991 11.645 66.0124 11.491C65.8258 11.3323 65.5761 11.253 65.2634 11.253H64.1574V12.975H65.2844ZM68.4504 12.982H70.1584V13.5H67.8134V8.621H68.4504V12.982ZM71.4719 9.139V10.77H73.2499V11.295H71.4719V12.975H73.4599V13.5H70.8349V8.614H73.4599V9.139H71.4719ZM76.927 9.139V10.77H78.705V11.295H76.927V12.975H78.915V13.5H76.29V8.614H78.915V9.139H76.927ZM83.7148 13.5H83.0778L80.5158 9.615V13.5H79.8788V8.614H80.5158L83.0778 12.492V8.614H83.7148V13.5Z" fill="white"/>
<path d="M93.5181 30.9097H95.1469V19.8981H93.5181V30.9097ZM108.189 23.8646L106.322 28.6388H106.266L104.328 23.8646H102.573L105.479 30.5371L103.823 34.249H105.521L110 23.8646H108.189ZM98.9519 29.6588C98.4176 29.6588 97.6739 29.3902 97.6739 28.7234C97.6739 27.8742 98.6001 27.5483 99.4005 27.5483C100.116 27.5483 100.454 27.7042 100.889 27.9165C100.762 28.9365 99.892 29.6588 98.9519 29.6588ZM99.1483 23.6241C97.969 23.6241 96.7469 24.1482 96.2424 25.3101L97.6879 25.9188C97.9969 25.3101 98.5721 25.111 99.1762 25.111C100.019 25.111 100.875 25.621 100.889 26.5283V26.6411C100.594 26.471 99.9627 26.2165 99.1902 26.2165C97.632 26.2165 96.0451 27.0806 96.0451 28.6952C96.0451 30.1689 97.323 31.1184 98.7546 31.1184C99.8501 31.1184 100.454 30.6225 100.833 30.0411H100.889V30.8912H102.461V26.6692C102.461 24.7146 101.015 23.6241 99.1483 23.6241M89.0821 25.2053H86.7655V21.4308H89.0821C90.2998 21.4308 90.9911 22.4482 90.9911 23.3176C90.9911 24.1711 90.2998 25.2053 89.0821 25.2053ZM89.0402 19.8981H85.1375V30.9097H86.7655V26.7379H89.0402C90.8453 26.7379 92.6199 25.4184 92.6199 23.3176C92.6199 21.2168 90.8453 19.8981 89.0402 19.8981M67.7583 29.6606C66.6332 29.6606 65.6913 28.7102 65.6913 27.4047C65.6913 26.0852 66.6332 25.1198 67.7583 25.1198C68.8695 25.1198 69.7406 26.0852 69.7406 27.4047C69.7406 28.7102 68.8695 29.6606 67.7583 29.6606ZM69.6289 24.4812H69.5722C69.2064 24.0417 68.5038 23.6444 67.6178 23.6444C65.7611 23.6444 64.0599 25.2898 64.0599 27.4047C64.0599 29.5047 65.7611 31.1369 67.6178 31.1369C68.5038 31.1369 69.2064 30.7396 69.5722 30.2851H69.6289V30.8251C69.6289 32.2582 68.8695 33.0246 67.6457 33.0246C66.6471 33.0246 66.0282 32.3005 65.7751 31.6901L64.3549 32.2864C64.7626 33.28 65.8458 34.5 67.6457 34.5C69.5582 34.5 71.1757 33.3646 71.1757 30.5978V23.8708H69.6289V24.4812ZM72.3008 30.9097H73.9322V19.8973H72.3008V30.9097ZM76.3362 27.277C76.2943 25.8298 77.4474 25.0916 78.2766 25.0916C78.9243 25.0916 79.4725 25.4176 79.6549 25.8862L76.3362 27.277ZM81.3989 26.028C81.0899 25.1912 80.1472 23.6444 78.2208 23.6444C76.3083 23.6444 74.7196 25.1621 74.7196 27.3907C74.7196 29.4906 76.2943 31.1369 78.4032 31.1369C80.1053 31.1369 81.0899 30.0869 81.4976 29.4765L80.2319 28.6247C79.8103 29.2493 79.2333 29.6606 78.4032 29.6606C77.5739 29.6606 76.983 29.2774 76.6033 28.5261L81.5674 26.4534L81.3989 26.028ZM41.8501 24.7939V26.383H45.6184C45.5058 27.277 45.2107 27.9297 44.7612 28.3834C44.2121 28.9374 43.3541 29.5479 41.8501 29.5479C39.5291 29.5479 37.7152 27.6602 37.7152 25.3189C37.7152 22.9767 39.5291 21.0899 41.8501 21.0899C43.1018 21.0899 44.0157 21.5867 44.6905 22.2254L45.8017 21.104C44.8589 20.1959 43.6081 19.5 41.8501 19.5C38.6719 19.5 36 22.1117 36 25.3189C36 28.5261 38.6719 31.1369 41.8501 31.1369C43.5653 31.1369 44.8589 30.5688 45.8715 29.5047C46.9129 28.4547 47.2358 26.9793 47.2358 25.7866C47.2358 25.4176 47.2079 25.0775 47.1512 24.7939H41.8501ZM51.5208 29.6606C50.3957 29.6606 49.425 28.7243 49.425 27.3907C49.425 26.0421 50.3957 25.1198 51.5208 25.1198C52.6451 25.1198 53.6158 26.0421 53.6158 27.3907C53.6158 28.7243 52.6451 29.6606 51.5208 29.6606ZM51.5208 23.6444C49.4669 23.6444 47.7936 25.2194 47.7936 27.3907C47.7936 29.5479 49.4669 31.1369 51.5208 31.1369C53.5739 31.1369 55.2472 29.5479 55.2472 27.3907C55.2472 25.2194 53.5739 23.6444 51.5208 23.6444ZM59.65 29.6606C58.5249 29.6606 57.5542 28.7243 57.5542 27.3907C57.5542 26.0421 58.5249 25.1198 59.65 25.1198C60.7752 25.1198 61.745 26.0421 61.745 27.3907C61.745 28.7243 60.7752 29.6606 59.65 29.6606ZM59.65 23.6444C57.597 23.6444 55.9237 25.2194 55.9237 27.3907C55.9237 29.5479 57.597 31.1369 59.65 31.1369C61.7031 31.1369 63.3764 29.5479 63.3764 27.3907C63.3764 25.2194 61.7031 23.6444 59.65 23.6444Z" fill="white"/>
</svg>
