<svg width="40" height="27" viewBox="0 0 40 27" fill="none" xmlns="http://www.w3.org/2000/svg">
<path fill-rule="evenodd" clip-rule="evenodd" d="M0.00839549 17.4063C0.0113073 17.3642 0.014217 17.3221 0.0157197 17.2796L0.0160001 17.2801C0.343306 7.67492 8.21621 0.000524092 17.9011 0V3.08419C14.1079 3.08419 10.9084 5.59572 9.86723 9.04719C14.0566 9.64465 17.2807 13.236 17.2807 17.5899C17.2807 22.3618 13.4121 26.2299 8.64064 26.2299C3.97023 26.2299 0.174489 22.5216 0.0151957 17.8895L0 17.9C0 17.8634 0.00132062 17.8271 0.00264181 17.7908C0.00381729 17.7585 0.00499322 17.7261 0.00523991 17.6936C0.00499425 17.6773 0.00382705 17.6612 0.00265647 17.6451C0.00133041 17.6268 0 17.6085 0 17.5898C0 17.5276 0.0041998 17.4669 0.00839549 17.4063ZM22.108 17.4063C22.1109 17.3642 22.1138 17.3221 22.1153 17.2796L22.1159 17.2801C22.4432 7.67492 30.3147 0.000524092 39.9996 0V3.08419C36.2069 3.08419 33.0075 5.59572 31.9663 9.04719C36.1557 9.64465 39.3798 13.236 39.3798 17.5899C39.3798 22.3618 35.5122 26.2299 30.7397 26.2299C26.0704 26.2299 22.2746 22.5216 22.1153 17.8895L22.0996 17.9C22.0996 17.8634 22.1009 17.8271 22.1023 17.7908C22.1034 17.7585 22.1046 17.7261 22.1048 17.6936C22.1048 17.6763 22.1035 17.6592 22.1022 17.6421C22.1009 17.6248 22.0996 17.6074 22.0996 17.5898C22.0996 17.5276 22.1038 17.4669 22.108 17.4063Z" fill="#D4D4D4"/>
</svg>
