<svg width="40" height="27" viewBox="0 0 40 27" fill="none" xmlns="http://www.w3.org/2000/svg">
<path fill-rule="evenodd" clip-rule="evenodd" d="M39.9916 9.59373C39.9887 9.63583 39.9858 9.67789 39.9843 9.72039L39.984 9.71987C39.6567 19.3251 31.7838 26.9995 22.0989 27V23.9158C25.8921 23.9158 29.0916 21.4043 30.1328 17.9528C25.9434 17.3553 22.7193 13.764 22.7193 9.41014C22.7193 4.63818 26.5879 0.770073 31.3594 0.770073C36.0298 0.770073 39.8255 4.47842 39.9848 9.11046L40 9.09998C40 9.13659 39.9987 9.1729 39.9974 9.20923C39.9962 9.24154 39.995 9.27388 39.9948 9.30644C39.995 9.32265 39.9962 9.33875 39.9973 9.3549C39.9987 9.37319 40 9.39154 40 9.41019C40 9.47237 39.9958 9.53308 39.9916 9.59373ZM17.892 9.59373C17.8891 9.63582 17.8862 9.67789 17.8847 9.72039L17.8841 9.71987C17.5568 19.3251 9.68526 26.9995 0.000366211 27V23.9158C3.79309 23.9158 6.99254 21.4043 8.03371 17.9528C3.84433 17.3553 0.620232 13.764 0.620232 9.41014C0.620232 4.63818 4.48781 0.770073 9.2603 0.770073C13.9296 0.770073 17.7254 4.47842 17.8847 9.11046L17.9004 9.09998C17.9004 9.13659 17.8991 9.17289 17.8977 9.20921C17.8966 9.24153 17.8954 9.27387 17.8952 9.30644C17.8952 9.32367 17.8965 9.34076 17.8978 9.35793C17.8991 9.37522 17.9004 9.39257 17.9004 9.41019C17.9004 9.47237 17.8962 9.53308 17.892 9.59373Z" fill="#D4D4D4"/>
</svg>
