<svg width="16" height="16" viewBox="0 0 16 16" fill="none" xmlns="http://www.w3.org/2000/svg">
<path fill-rule="evenodd" clip-rule="evenodd" d="M6.97792 1.44945C7.28993 1.27379 7.64194 1.1815 8 1.1815C8.35806 1.1815 8.71007 1.27379 9.02208 1.44945C9.33408 1.62511 9.59555 1.87822 9.78125 2.18436L9.78341 2.18792L15.4362 11.6249C15.6181 11.9399 15.7143 12.2971 15.7153 12.6609C15.7164 13.0247 15.6221 13.3824 15.442 13.6984C15.2618 14.0145 15.0021 14.2778 14.6885 14.4623C14.375 14.6468 14.0187 14.746 13.6549 14.75L13.6467 14.75L2.34509 14.75C1.98134 14.746 1.62497 14.6468 1.31145 14.4623C0.997928 14.2778 0.738174 14.0145 0.558033 13.6984C0.377892 13.3824 0.283642 13.0247 0.284661 12.6609C0.285679 12.2971 0.381931 11.94 0.563839 11.625L0.569849 11.6145L6.2166 2.18793L6.86 2.57333L6.21875 2.18436C6.40445 1.87822 6.66591 1.62511 6.97792 1.44945ZM7.50211 2.96089L7.50125 2.9623L1.86045 12.3792C1.81105 12.4664 1.78494 12.5648 1.78465 12.6651C1.78437 12.767 1.81076 12.8671 1.8612 12.9556C1.91164 13.0441 1.98437 13.1178 2.07216 13.1695C2.15899 13.2206 2.25757 13.2483 2.35827 13.25H13.6417C13.7424 13.2483 13.841 13.2206 13.9278 13.1695C14.0156 13.1178 14.0884 13.0441 14.1388 12.9556C14.1892 12.8671 14.2156 12.767 14.2153 12.6651C14.2151 12.5648 14.1889 12.4664 14.1395 12.3792L8.49875 2.9623L8.49789 2.96089C8.44595 2.8758 8.37306 2.80544 8.28618 2.75653C8.19882 2.70734 8.10026 2.6815 8 2.6815C7.89974 2.6815 7.80118 2.70734 7.71382 2.75653C7.62694 2.80544 7.55405 2.87581 7.50211 2.96089ZM8 5.25C8.41421 5.25 8.75 5.58579 8.75 6V8.5C8.75 8.91421 8.41421 9.25 8 9.25C7.58579 9.25 7.25 8.91421 7.25 8.5V6C7.25 5.58579 7.58579 5.25 8 5.25ZM8 10.5C7.58579 10.5 7.25 10.8358 7.25 11.25C7.25 11.6642 7.58579 12 8 12H8.00667C8.42088 12 8.75667 11.6642 8.75667 11.25C8.75667 10.8358 8.42088 10.5 8.00667 10.5H8Z" fill="#04101E"/>
</svg>
