<svg width="16" height="16" viewBox="0 0 16 16" fill="none" xmlns="http://www.w3.org/2000/svg">
<path fill-rule="evenodd" clip-rule="evenodd" d="M8.1363 4.13633C8.42919 3.84343 8.90406 3.84343 9.19696 4.13633L12.5303 7.46966C12.8232 7.76255 12.8232 8.23743 12.5303 8.53032L9.19696 11.8637C8.90406 12.1565 8.42919 12.1565 8.1363 11.8637C7.8434 11.5708 7.8434 11.0959 8.1363 10.803L10.9393 7.99999L8.1363 5.19699C7.8434 4.90409 7.8434 4.42922 8.1363 4.13633Z" fill="#181818"/>
<path fill-rule="evenodd" clip-rule="evenodd" d="M3.46967 4.13633C3.76256 3.84343 4.23744 3.84343 4.53033 4.13633L7.86366 7.46966C8.00432 7.61031 8.08333 7.80108 8.08333 7.99999C8.08333 8.1989 8.00432 8.38967 7.86366 8.53032L4.53033 11.8637C4.23744 12.1565 3.76256 12.1565 3.46967 11.8637C3.17678 11.5708 3.17678 11.0959 3.46967 10.803L6.27267 7.99999L3.46967 5.19699C3.17678 4.90409 3.17678 4.42922 3.46967 4.13633Z" fill="#181818"/>
</svg>
