<svg width="16" height="16" viewBox="0 0 16 16" fill="none" xmlns="http://www.w3.org/2000/svg">
<path fill-rule="evenodd" clip-rule="evenodd" d="M7.86366 4.13633C8.15656 4.42922 8.15656 4.90409 7.86366 5.19699L5.06066 7.99999L7.86366 10.803C8.15656 11.0959 8.15656 11.5708 7.86366 11.8637C7.57077 12.1565 7.0959 12.1565 6.803 11.8637L3.46967 8.53032C3.32902 8.38967 3.25 8.1989 3.25 7.99999C3.25 7.80108 3.32902 7.61031 3.46967 7.46966L6.803 4.13633C7.0959 3.84343 7.57077 3.84343 7.86366 4.13633Z" fill="#181818"/>
<path fill-rule="evenodd" clip-rule="evenodd" d="M12.5304 4.13633C12.8232 4.42922 12.8232 4.90409 12.5304 5.19699L9.72735 7.99999L12.5304 10.803C12.8232 11.0959 12.8232 11.5708 12.5304 11.8637C12.2375 12.1565 11.7626 12.1565 11.4697 11.8637L8.13636 8.53032C7.84346 8.23743 7.84346 7.76255 8.13636 7.46966L11.4697 4.13633C11.7626 3.84343 12.2375 3.84343 12.5304 4.13633Z" fill="#181818"/>
</svg>
