<svg width="24" height="24" viewBox="0 0 24 24" fill="none" xmlns="http://www.w3.org/2000/svg">
<path fill-rule="evenodd" clip-rule="evenodd" d="M14.5577 2.72421C15.3161 2.40993 16.1291 2.24818 16.9501 2.24818C17.7711 2.24818 18.5841 2.40993 19.3426 2.72421C20.101 3.03849 20.7902 3.49912 21.3706 4.0798C21.9511 4.66015 22.4117 5.34919 22.7259 6.10755C23.0402 6.86603 23.2019 7.67899 23.2019 8.5C23.2019 9.32101 23.0402 10.134 22.7259 10.8925C22.4117 11.6509 21.9511 12.34 21.3704 12.9203C21.3704 12.9204 21.3705 12.9203 21.3704 12.9203L13.5911 20.6997C12.7124 21.5784 11.2878 21.5784 10.4091 20.6997L2.62979 12.9203C1.45744 11.748 0.798828 10.1579 0.798828 8.5C0.798828 6.84206 1.45744 5.25202 2.62979 4.07967C3.80213 2.90733 5.39217 2.24871 7.05012 2.24871C8.70806 2.24871 10.2981 2.90733 11.4704 4.07967L12.0001 4.60934L12.5297 4.0798C13.1101 3.49912 13.7992 3.03849 14.5577 2.72421ZM16.9501 3.74818C16.3262 3.74818 15.7083 3.87111 15.1319 4.10996C14.5554 4.34881 14.0317 4.69889 13.5906 5.14021L12.5304 6.20033C12.2376 6.49323 11.7627 6.49323 11.4698 6.20033L10.4098 5.14033C9.51875 4.24929 8.31024 3.74871 7.05012 3.74871C5.79 3.74871 4.58149 4.24929 3.69045 5.14033C2.79941 6.03137 2.29883 7.23988 2.29883 8.5C2.29883 9.76012 2.79941 10.9686 3.69045 11.8597L11.4698 19.639C11.7627 19.9319 12.2376 19.9319 12.5304 19.639L20.3098 11.8597C20.7511 11.4186 21.1013 10.8947 21.3402 10.3183C21.579 9.74182 21.7019 9.12397 21.7019 8.5C21.7019 7.87604 21.579 7.25818 21.3402 6.68174C21.1013 6.1053 20.7512 5.58156 20.3099 5.14046C19.8688 4.69914 19.3448 4.34881 18.7684 4.10996C18.1919 3.87111 17.5741 3.74818 16.9501 3.74818Z" fill="#04101E"/>
</svg>
