<svg width="20" height="20" viewBox="0 0 20 20" fill="none" xmlns="http://www.w3.org/2000/svg">
<path fill-rule="evenodd" clip-rule="evenodd" d="M10.0679 2.09095C10.2292 2.3771 10.2073 2.73129 10.012 2.99543C9.3002 3.95848 8.95765 5.14504 9.04671 6.3393C9.13577 7.53356 9.65052 8.65619 10.4973 9.50301C11.3441 10.3498 12.4668 10.8646 13.661 10.9536C14.8553 11.0427 16.0419 10.7001 17.0049 9.98829C17.269 9.79305 17.6232 9.77118 17.9094 9.93245C18.1955 10.0937 18.3603 10.408 18.33 10.7351C18.1844 12.3112 17.5929 13.8133 16.6247 15.0655C15.6566 16.3177 14.3518 17.2683 12.8631 17.806C11.3744 18.3437 9.76336 18.4463 8.21847 18.1019C6.67358 17.7574 5.25874 16.9801 4.13951 15.8608C3.02028 14.7416 2.24295 13.3268 1.89847 11.7819C1.554 10.237 1.65663 8.62593 2.19436 7.13724C2.73208 5.64855 3.68266 4.34379 4.93487 3.37562C6.18707 2.40746 7.68911 1.81595 9.26523 1.6703C9.5923 1.64007 9.90662 1.8048 10.0679 2.09095ZM7.7639 3.69931C7.11589 3.93377 6.50491 4.26845 5.95431 4.69415C4.95254 5.46868 4.19208 6.51249 3.7619 7.70345C3.33172 8.8944 3.24961 10.1832 3.52519 11.4192C3.80077 12.6551 4.42264 13.7869 5.31802 14.6823C6.2134 15.5777 7.34527 16.1996 8.58119 16.4751C9.8171 16.7507 11.1059 16.6686 12.2969 16.2384C13.4878 15.8083 14.5317 15.0478 15.3062 14.046C15.7319 13.4954 16.0666 12.8845 16.301 12.2364C15.4234 12.5539 14.4821 12.6861 13.5371 12.6157C11.9447 12.4969 10.4479 11.8106 9.31882 10.6815C8.18974 9.55243 7.50341 8.05559 7.38466 6.46325C7.31419 5.51827 7.44639 4.57691 7.7639 3.69931Z" fill="#04101E"/>
</svg>
