<svg width="24" height="24" viewBox="0 0 24 24" fill="none" xmlns="http://www.w3.org/2000/svg">
<path fill-rule="evenodd" clip-rule="evenodd" d="M2.75 7C2.75 6.26007 3.29785 5.75 3.86667 5.75H14.1333C14.7022 5.75 15.25 6.26007 15.25 7V10V14V17C15.25 17.7399 14.7022 18.25 14.1333 18.25H3.86667C3.29785 18.25 2.75 17.7399 2.75 17V7ZM16.75 15.2135V17C16.75 18.4692 15.6264 19.75 14.1333 19.75H3.86667C2.37362 19.75 1.25 18.4692 1.25 17V7C1.25 5.53079 2.37362 4.25 3.86667 4.25H14.1333C15.6264 4.25 16.75 5.53079 16.75 7V8.78648L21.6646 6.32918C21.8971 6.21293 22.1732 6.22536 22.3943 6.36201C22.6154 6.49867 22.75 6.74007 22.75 7V17C22.75 17.2599 22.6154 17.5013 22.3943 17.638C22.1732 17.7746 21.8971 17.7871 21.6646 17.6708L16.75 15.2135ZM16.75 13.5365L21.25 15.7865V8.21353L16.75 10.4635V13.5365Z" fill="#04101E"/>
</svg>
