<svg width="48" height="48" viewBox="0 0 48 48" fill="none" xmlns="http://www.w3.org/2000/svg">
<path opacity="0.1" fill-rule="evenodd" clip-rule="evenodd" d="M43.3699 19.0003H39V28.0003H43.5999C43.5316 28.3368 43.4548 28.6702 43.3699 29.0003H39V37.2294C38.447 37.8559 37.8555 38.4474 37.2291 39.0003H29V43.3702C28.6698 43.4552 28.3364 43.5319 28 43.6002V39.0003H19V43.3702C18.6631 43.2835 18.3297 43.1883 18 43.0847V39.0003H10.7708C10.4076 38.6797 10.0561 38.3462 9.71709 38.0003H18V29.0003H8.99995V37.2294C8.65091 36.834 8.31727 36.4246 7.99995 36.0023V29.0003H4.63004C4.54507 28.6702 4.46833 28.3368 4.40002 28.0003H7.99995V19.0003H4.63004C4.71674 18.6635 4.81199 18.3301 4.91556 18.0003H7.99995V11.9984C8.31727 11.576 8.65091 11.1667 8.99995 10.7712V18.0003H18V9.00032H10.7708C11.1663 8.65128 11.5757 8.31763 11.998 8.00032H18V4.91592C18.3297 4.81236 18.6631 4.7171 19 4.63041V8.00032H28V4.40039C28.3364 4.46869 28.6698 4.54544 29 4.63041V8.00032H36.0019C36.4242 8.31763 36.8336 8.65128 37.2291 9.00032H29V18.0003H38V9.71745C38.3458 10.0565 38.6794 10.408 39 10.7712V18.0003H43.0843C43.1879 18.3301 43.2832 18.6635 43.3699 19.0003ZM38 29.0003V38.0003H29V29.0003H38ZM28 29.0003V38.0003H19V29.0003H28ZM8.99995 28.0003H18V19.0003H8.99995V28.0003ZM19 28.0003H28V19.0003H19V28.0003ZM29 28.0003H38V19.0003H29V28.0003ZM28 9.00032V18.0003H19V9.00032H28Z" fill="#00712D"/>
<path fill-rule="evenodd" clip-rule="evenodd" d="M24 24C21.1907 24 18.5318 24.6435 16.1625 25.7913L11.909 21.5377C11.3232 20.9519 10.3734 20.9519 9.78765 21.5377C9.20186 22.1235 9.20186 23.0732 9.78765 23.659L13.5039 27.3753C11.4327 28.8644 9.69065 30.7827 8.40802 33C11.5203 38.3802 17.3374 42 23.9999 42C30.6625 42 36.4796 38.3802 39.5919 33C38.3092 30.7827 36.5672 28.8644 34.496 27.3753L38.2123 23.659C38.7981 23.0732 38.7981 22.1235 38.2123 21.5377C37.6265 20.9519 36.6767 20.9519 36.091 21.5377L31.8374 25.7913C29.4681 24.6436 26.8092 24 24 24ZM19 35C19 36.1046 18.1045 37 17 37C15.8954 37 15 36.1046 15 35C15 33.8954 15.8954 33 17 33C18.1045 33 19 33.8954 19 35ZM30.9999 37C32.1045 37 32.9999 36.1046 32.9999 35C32.9999 33.8954 32.1045 33 30.9999 33C29.8954 33 28.9999 33.8954 28.9999 35C28.9999 36.1046 29.8954 37 30.9999 37Z" fill="#00712D"/>
<path fill-rule="evenodd" clip-rule="evenodd" d="M46 24C46 36.1503 36.1503 46 24 46C11.8497 46 2 36.1503 2 24C2 11.8497 11.8497 2 24 2C36.1503 2 46 11.8497 46 24ZM43 24C43 34.4934 34.4934 43 24 43C13.5066 43 5 34.4934 5 24C5 13.5066 13.5066 5 24 5C34.4934 5 43 13.5066 43 24Z" fill="#00712D"/>
</svg>
