<svg width="48" height="48" viewBox="0 0 48 48" fill="none" xmlns="http://www.w3.org/2000/svg">
<path fill-rule="evenodd" clip-rule="evenodd" d="M24 1C27.8984 1 31.3201 3.02818 33.2725 6.08023C38.1946 6.70542 42 10.9082 42 16C42 16.4225 41.9737 16.8396 41.9225 17.2496C43.233 19.173 44 21.4991 44 24C44 26.5009 43.233 28.827 41.9225 30.7504C41.9737 31.1604 42 31.5775 42 32C42 37.0918 38.1946 41.2946 33.2725 41.9198C31.3201 44.9718 27.8984 47 24 47C20.1016 47 16.6799 44.9718 14.7275 41.9198C9.80537 41.2946 6 37.0918 6 32C6 31.5775 6.02632 31.1604 6.07754 30.7504C4.76702 28.827 4 26.5009 4 24C4 21.4991 4.76702 19.173 6.07753 17.2496C6.02631 16.8396 6 16.4225 6 16C6 10.9082 9.80536 6.70542 14.7275 6.08023C16.6799 3.02818 20.1016 1 24 1ZM16.8309 8.44526C18.1412 5.80855 20.8603 4 24 4C27.1397 4 29.8588 5.80855 31.1691 8.44526C31.3368 8.78271 31.6799 8.99724 32.0567 9.00022C35.8965 9.0306 39 12.1529 39 16C39 16.5278 38.9418 17.0408 38.8318 17.5333C38.7656 17.8295 38.8376 18.1398 39.0274 18.3766C40.2621 19.9174 41 21.8712 41 24C41 26.1288 40.2621 28.0826 39.0274 29.6234C38.8376 29.8602 38.7656 30.1705 38.8318 30.4667C38.9418 30.9592 39 31.4722 39 32C39 35.8471 35.8965 38.9694 32.0567 38.9998C31.6799 39.0028 31.3368 39.2173 31.1691 39.5547C29.8588 42.1915 27.1397 44 24 44C20.8603 44 18.1412 42.1915 16.8309 39.5547C16.6632 39.2173 16.3201 39.0028 15.9433 38.9998C12.1035 38.9694 9 35.8471 9 32C9 31.4722 9.05823 30.9592 9.16823 30.4667C9.23438 30.1705 9.16242 29.8602 8.97262 29.6234C7.73787 28.0826 7 26.1288 7 24C7 21.8712 7.73787 19.9174 8.97262 18.3766C9.16242 18.1398 9.23438 17.8295 9.16823 17.5333C9.05823 17.0408 9 16.5278 9 16C9 12.1529 12.1035 9.0306 15.9433 9.00022C16.3201 8.99724 16.6632 8.78271 16.8309 8.44526Z" fill="#535B65"/>
<path opacity="0.3" fill-rule="evenodd" clip-rule="evenodd" d="M16.8309 8.44526C18.1412 5.80855 20.8603 4 24 4C27.1397 4 29.8588 5.80855 31.1691 8.44526C31.3368 8.78271 31.6799 8.99724 32.0567 9.00022C35.8965 9.0306 39 12.1529 39 16C39 16.5278 38.9418 17.0408 38.8318 17.5333C38.7656 17.8295 38.8376 18.1398 39.0274 18.3766C40.2621 19.9174 41 21.8712 41 24C41 26.1288 40.2621 28.0826 39.0274 29.6234C38.8376 29.8602 38.7656 30.1705 38.8318 30.4667C38.9418 30.9592 39 31.4722 39 32C39 35.8471 35.8965 38.9694 32.0567 38.9998C31.6799 39.0028 31.3368 39.2173 31.1691 39.5547C29.8588 42.1915 27.1397 44 24 44C20.8603 44 18.1412 42.1915 16.8309 39.5547C16.6632 39.2173 16.3201 39.0028 15.9433 38.9998C12.1035 38.9694 9 35.8471 9 32C9 31.4722 9.05823 30.9592 9.16823 30.4667C9.23438 30.1705 9.16242 29.8602 8.97262 29.6234C7.73787 28.0826 7 26.1288 7 24C7 21.8712 7.73787 19.9174 8.97262 18.3766C9.16242 18.1398 9.23438 17.8295 9.16823 17.5333C9.05823 17.0408 9 16.5278 9 16C9 12.1529 12.1035 9.0306 15.9433 9.00022C16.3201 8.99724 16.6632 8.78271 16.8309 8.44526Z" fill="#535B65"/>
<path d="M24 2C24.5523 2 25 2.44772 25 3V45C25 45.5523 24.5523 46 24 46C23.4477 46 23 45.5523 23 45V3C23 2.44772 23.4477 2 24 2Z" fill="#535B65"/>
<path d="M18.1213 10.4645C18.5118 10.0739 19.145 10.0739 19.5355 10.4645C21.372 12.3009 21.4812 15.2105 19.8633 17.1747C20.5821 18.2742 21 19.5883 21 21C21 21.5523 20.5523 22 20 22C19.4477 22 19 21.5523 19 21C19 18.2386 16.7614 16 14 16C10.2415 16 7 19.4677 7 24C7 28.5323 10.2415 32 14 32C14.5523 32 15 32.4477 15 33C15 33.5523 14.5523 34 14 34C8.92196 34 5 29.4089 5 24C5 18.5911 8.92197 14 14 14C15.7178 14 17.2911 14.6188 18.5091 15.6456C19.2742 14.4816 19.1449 12.9023 18.1213 11.8787C17.7308 11.4882 17.7308 10.855 18.1213 10.4645Z" fill="#535B65"/>
<path d="M29.8871 10.4645C30.2776 10.855 30.2776 11.4882 29.8871 11.8787C28.8648 12.901 28.7346 14.4775 29.4963 15.641C30.7136 14.6169 32.2847 14 34 14C39.078 14 43 18.5911 43 24C43 29.4089 39.078 34 34 34C33.4477 34 33 33.5523 33 33C33 32.4477 33.4477 32 34 32C37.7585 32 41 28.5323 41 24C41 19.4677 37.7585 16 34 16C31.2386 16 29 18.2386 29 21C29 21.5523 28.5523 22 28 22C27.4477 22 27 21.5523 27 21C27 19.5859 27.4193 18.2697 28.1404 17.169C26.5274 15.2049 26.6382 12.2992 28.4729 10.4645C28.8634 10.0739 29.4966 10.0739 29.8871 10.4645Z" fill="#535B65"/>
<path d="M13 23C13.5523 23 14 23.4477 14 24V26C14 27.1046 14.8954 28 16 28C18.7614 28 21 30.2386 21 33C21 33.5523 20.5523 34 20 34C19.4477 34 19 33.5523 19 33C19 31.3431 17.6569 30 16 30C13.7909 30 12 28.2091 12 26V24C12 23.4477 12.4477 23 13 23Z" fill="#535B65"/>
<path d="M35 23C35.5523 23 36 23.4477 36 24V26C36 28.2091 34.2091 30 32 30C30.3431 30 29 31.3431 29 33C29 33.5523 28.5523 34 28 34C27.4477 34 27 33.5523 27 33C27 30.2386 29.2386 28 32 28C33.1046 28 34 27.1046 34 26V24C34 23.4477 34.4477 23 35 23Z" fill="#535B65"/>
<path d="M18 37C18.5523 37 19 37.4477 19 38C19 39.6569 17.6569 41 16 41C15.4477 41 15 40.5523 15 40C15 39.4477 15.4477 39 16 39C16.5523 39 17 38.5523 17 38C17 37.4477 17.4477 37 18 37Z" fill="#535B65"/>
<path d="M29 38C29 37.4477 29.4477 37 30 37C30.5523 37 31 37.4477 31 38C31 38.5523 31.4477 39 32 39C32.5523 39 33 39.4477 33 40C33 40.5523 32.5523 41 32 41C30.3431 41 29 39.6569 29 38Z" fill="#535B65"/>
</svg>
