<svg width="48" height="48" viewBox="0 0 48 48" fill="none" xmlns="http://www.w3.org/2000/svg">
<path opacity="0.3" d="M17 16H16C13.7909 16 12 17.7909 12 20V30C12 36.6274 17.3726 42 24 42C30.6274 42 36 36.6274 36 30V20C36 17.7909 34.2091 16 32 16H31C31 17.6569 29.6569 19 28 19H20C18.3431 19 17 17.6569 17 16Z" fill="#535B65"/>
<path d="M22 14.5C22 15.3284 21.3284 16 20.5 16C19.6716 16 19 15.3284 19 14.5C19 13.6716 19.6716 13 20.5 13C21.3284 13 22 13.6716 22 14.5Z" fill="#535B65"/>
<path d="M27.5 16C28.3284 16 29 15.3284 29 14.5C29 13.6716 28.3284 13 27.5 13C26.6716 13 26 13.6716 26 14.5C26 15.3284 26.6716 16 27.5 16Z" fill="#535B65"/>
<path fill-rule="evenodd" clip-rule="evenodd" d="M20 5C20 4.44772 19.5523 4 19 4C18.4477 4 18 4.44772 18 5V6C18 6.87574 18.2251 7.69889 18.6207 8.41474C16.1268 9.31597 14.2914 11.5936 14.0316 14.3303C11.9894 15.0392 10.4486 16.8204 10.083 19H10C7.23858 19 5 16.7614 5 14V13C5 12.4477 4.55228 12 4 12C3.44772 12 3 12.4477 3 13V14C3 17.866 6.13401 21 10 21V26H3C2.44772 26 2 26.4477 2 27C2 27.5523 2.44772 28 3 28H10V30C10 31.0981 10.1264 32.1666 10.3655 33.1919C7.28792 33.928 5 36.6968 5 40V42C5 42.5523 5.44772 43 6 43C6.55228 43 7 42.5523 7 42V40C7 37.5948 8.69827 35.5863 10.9611 35.1081C13.0021 40.3138 18.0706 44 24 44C29.9294 44 34.9979 40.3138 37.0389 35.1081C39.3017 35.5863 41 37.5948 41 40V42C41 42.5523 41.4477 43 42 43C42.5523 43 43 42.5523 43 42V40C43 36.6968 40.7121 33.928 37.6345 33.1919C37.8736 32.1666 38 31.0981 38 30V28H45C45.5523 28 46 27.5523 46 27C46 26.4477 45.5523 26 45 26H38V21C41.866 21 45 17.866 45 14V13C45 12.4477 44.5523 12 44 12C43.4477 12 43 12.4477 43 13V14C43 16.7614 40.7614 19 38 19H37.917C37.5514 16.8204 36.0106 15.0392 33.9684 14.3303C33.7086 11.5936 31.8732 9.31597 29.3793 8.41474C29.7749 7.69889 30 6.87574 30 6V5C30 4.44772 29.5523 4 29 4C28.4477 4 28 4.44772 28 5V6C28 6.77019 27.7098 7.47259 27.2327 8.0038C26.6835 8.61534 25.8867 9 25 9H23C22.1133 9 21.3165 8.61534 20.7673 8.0038C20.2902 7.47259 20 6.77019 20 6V5ZM17.1707 17C17.5825 18.1652 18.6938 19 20 19H28C29.3062 19 30.4175 18.1652 30.8293 17C30.9398 16.6872 31 16.3506 31 16V15C31 12.7909 29.2091 11 27 11H21C18.7909 11 17 12.7909 17 15V16C17 16.3506 17.0602 16.6872 17.1707 17ZM25 40.9552V21H28C30.3733 21 32.3603 19.3465 32.8721 17.1287C34.1036 17.5023 35 18.6465 35 20V30C35 35.738 30.6065 40.4499 25 40.9552ZM23 40.9552C17.3935 40.4499 13 35.738 13 30V20C13 18.6465 13.8964 17.5023 15.1279 17.1287C15.6397 19.3465 17.6267 21 20 21H23V40.9552Z" fill="#535B65"/>
</svg>
