<svg width="48" height="48" viewBox="0 0 48 48" fill="none" xmlns="http://www.w3.org/2000/svg">
<path opacity="0.2" d="M22.0574 42.9208L6 34L24 24L42 34L25.9426 42.9208C24.7345 43.592 23.2655 43.592 22.0574 42.9208Z" fill="#002E82"/>
<path opacity="0.1" d="M42 34L24 24L42 14V34Z" fill="#002E82"/>
<path d="M24 34.0003C27.76 34.0003 31.0353 31.9252 32.7432 28.8576L30.1202 27.4005C28.9247 29.5477 26.632 31.0003 24 31.0003C20.134 31.0003 17 27.8663 17 24.0003C17 20.1343 20.134 17.0003 24 17.0003C26.632 17.0003 28.9247 18.453 30.1202 20.6002L32.7432 19.143C31.0353 16.0755 27.76 14.0003 24 14.0003C18.4772 14.0003 14 18.4775 14 24.0003C14 29.5232 18.4772 34.0003 24 34.0003Z" fill="#002E82"/>
<path d="M38 22.5003C38 22.2242 37.7761 22.0003 37.5 22.0003C37.2239 22.0003 37 22.2242 37 22.5003V23.5003H36C35.7239 23.5003 35.5 23.7242 35.5 24.0003C35.5 24.2765 35.7239 24.5003 36 24.5003H37V25.5003C37 25.7765 37.2239 26.0003 37.5 26.0003C37.7761 26.0003 38 25.7765 38 25.5003V24.5003H39C39.2761 24.5003 39.5 24.2765 39.5 24.0003C39.5 23.7242 39.2761 23.5003 39 23.5003H38V22.5003Z" fill="#002E82"/>
<path d="M33 22.5003C33 22.2242 32.7761 22.0003 32.5 22.0003C32.2239 22.0003 32 22.2242 32 22.5003V23.5003H31C30.7239 23.5003 30.5 23.7242 30.5 24.0003C30.5 24.2765 30.7239 24.5003 31 24.5003H32V25.5003C32 25.7765 32.2239 26.0003 32.5 26.0003C32.7761 26.0003 33 25.7765 33 25.5003V24.5003H34C34.2761 24.5003 34.5 24.2765 34.5 24.0003C34.5 23.7242 34.2761 23.5003 34 23.5003H33V22.5003Z" fill="#002E82"/>
<path fill-rule="evenodd" clip-rule="evenodd" d="M22.7912 45.3015C21.8816 45.1144 21.0549 44.6539 20.1158 44.1307L8.11338 37.4626C7.12122 36.9131 6.24828 36.4296 5.5877 35.7127C5.00885 35.0846 4.57079 34.3401 4.30281 33.529C3.997 32.6035 3.99827 31.6056 3.99971 30.4713V17.5293C3.99827 16.3951 3.997 15.3972 4.30281 14.4716C4.57079 13.6606 5.00885 12.9161 5.5877 12.2879C6.24829 11.5711 7.12124 11.0876 8.11342 10.538L20.1158 3.87003C21.0549 3.34681 21.8816 2.88625 22.7912 2.69918C23.5887 2.53517 24.4112 2.53517 25.2086 2.69918C26.1182 2.88625 26.9449 3.34681 27.884 3.87003L39.8864 10.538C40.8786 11.0876 41.7515 11.5711 42.4121 12.2879C42.991 12.9161 43.429 13.6606 43.697 14.4716C44.0028 15.3972 44.0015 16.3951 44.0001 17.5293V30.4713C44.0015 31.6056 44.0028 32.6035 43.697 33.529C43.429 34.3401 42.991 35.0846 42.4121 35.7127C41.7516 36.4295 40.8786 36.9131 39.8865 37.4626L27.8839 44.1306C26.9448 44.6539 26.1182 45.1144 25.2086 45.3015C24.4112 45.4655 23.5887 45.4655 22.7912 45.3015ZM24.6044 5.63768C24.2057 5.55567 23.7945 5.55567 23.3957 5.63768C22.9808 5.72302 22.5686 5.93954 21.3776 6.60122L9.77761 13.0457C8.51935 13.7447 8.09521 13.9941 7.79398 14.3209C7.50456 14.635 7.28552 15.0073 7.15154 15.4128C7.01209 15.8349 7.00008 16.3267 7.00008 17.7661V30.2346C7.00008 31.6739 7.01209 32.1658 7.15154 32.5879C7.28552 32.9934 7.50456 33.3657 7.79398 33.6797C8.09521 34.0066 8.51935 34.256 9.77761 34.955L21.3776 41.3994C22.5686 42.0611 22.9808 42.2776 23.3957 42.363C23.7945 42.445 24.2057 42.445 24.6044 42.363C25.0194 42.2776 25.4315 42.0611 26.6226 41.3994L38.2226 34.955C39.4808 34.256 39.905 34.0066 40.2062 33.6797C40.4956 33.3657 40.7146 32.9934 40.8486 32.5879C40.9881 32.1658 41.0001 31.6739 41.0001 30.2346V17.7661C41.0001 16.3267 40.9881 15.8349 40.8486 15.4128C40.7146 15.0073 40.4956 14.635 40.2062 14.3209C39.905 13.9941 39.4808 13.7447 38.2226 13.0457L26.6226 6.60122C25.4315 5.93954 25.0194 5.72302 24.6044 5.63768Z" fill="#002E82"/>
</svg>
