<svg width="48" height="48" viewBox="0 0 48 48" fill="none" xmlns="http://www.w3.org/2000/svg">
<path fill-rule="evenodd" clip-rule="evenodd" d="M24 46C36.1503 46 46 36.1503 46 24C46 11.8497 36.1503 2 24 2C11.8497 2 2 11.8497 2 24C2 36.1503 11.8497 46 24 46ZM5 24C5 13.5066 13.5066 5 24 5C34.4934 5 43 13.5066 43 24C43 34.4934 34.4934 43 24 43C13.5066 43 5 34.4934 5 24Z" fill="#535B65"/>
<path fill-rule="evenodd" clip-rule="evenodd" d="M35.6301 18.185C33.4958 13.9246 29.0894 11 24 11C16.8203 11 11 16.8203 11 24C11 31.1797 16.8203 37 24 37C29.0894 37 33.4958 34.0754 35.6301 29.815L32.9462 28.4731C31.3045 31.7503 27.9149 34 24 34C18.4772 34 14 29.5228 14 24C14 18.4772 18.4772 14 24 14C27.9149 14 31.3045 16.2497 32.9462 19.5269L35.6301 18.185Z" fill="#535B65"/>
</svg>
