<svg width="48" height="48" viewBox="0 0 48 48" fill="none" xmlns="http://www.w3.org/2000/svg">
<path opacity="0.3" d="M15 9C15 6.23858 17.2386 4 20 4C22.7614 4 25 6.23858 25 9V12H27C29.7956 12 31.1935 12 32.2961 12.4567C33.7663 13.0657 34.9343 14.2337 35.5433 15.7039C36 16.8065 36 18.2044 36 21H39C41.7614 21 44 23.2386 44 26C44 28.7614 41.7614 31 39 31H36V34.4C36 37.7603 36 39.4405 35.346 40.7239C34.7708 41.8529 33.8529 42.7708 32.7239 43.346C31.4405 44 29.7603 44 26.4 44H25V40.5C25 38.0147 22.9853 36 20.5 36C18.0147 36 16 38.0147 16 40.5V44H13.6C10.2397 44 8.55953 44 7.27606 43.346C6.14708 42.7708 5.2292 41.8529 4.65396 40.7239C4 39.4405 4 37.7603 4 34.4V31H7C9.76142 31 12 28.7614 12 26C12 23.2386 9.76142 21 7 21H4C4 18.2044 4 16.8065 4.45672 15.7039C5.06569 14.2337 6.23373 13.0657 7.7039 12.4567C8.80653 12 10.2044 12 13 12H15V9Z" fill="#7F4800"/>
<path fill-rule="evenodd" clip-rule="evenodd" d="M26 46C24.8954 46 24 45.1046 24 44L24 40.5C24 38.567 22.433 37 20.5 37C18.567 37 17 38.567 17 40.5L17 44C17 45.1046 16.1046 46 15 46H13.5174C11.9074 46 10.5787 46 9.49635 45.9116C8.37216 45.8198 7.33875 45.6226 6.36808 45.1281C4.86278 44.3611 3.63894 43.1372 2.87195 41.6319C2.37737 40.6613 2.18024 39.6278 2.08839 38.5037C1.99996 37.4213 1.99998 36.0925 2 34.4826V32C2 30.8954 2.89543 30 4 30H7C9.20914 30 11 28.2091 11 26C11 23.7909 9.20914 22 7 22H4C2.89543 22 2 21.1046 2 20V19.9314C1.99999 18.5926 1.99998 18.4859 2.06173 17.5809C2.12577 16.6424 2.26284 15.7742 2.60897 14.9385C3.42092 12.9783 4.97831 11.4209 6.93854 10.609C7.77416 10.2628 8.64236 10.1258 9.58093 10.0617C10.4861 9.99997 11.5919 9.99998 12.9315 10L13 10L13 9C13 5.13401 16.134 2 20 2C23.866 2 27 5.13401 27 9V10L27.0685 10C28.4081 9.99998 29.5139 9.99997 30.4191 10.0617C31.3576 10.1258 32.2258 10.2628 33.0615 10.609C35.0217 11.4209 36.5791 12.9783 37.391 14.9385C37.7372 15.7742 37.8742 16.6424 37.9383 17.5809C37.9674 18.0081 37.9828 18.48 37.9909 19H39C42.866 19 46 22.134 46 26C46 29.866 42.866 33 39 33H38V34.4827C38 36.0926 38 37.4213 37.9116 38.5037C37.8198 39.6278 37.6226 40.6613 37.1281 41.6319C36.3611 43.1372 35.1372 44.3611 33.6319 45.1281C32.6613 45.6226 31.6278 45.8198 30.5037 45.9116C29.4213 46 28.0926 46 26.4827 46H26ZM16 9C16 6.79086 17.7909 5 20 5C22.2091 5 24 6.79086 24 9V12C24 12.5523 24.4477 13 25 13H27C28.4115 13 29.4201 13.0005 30.2149 13.0548C31.0007 13.1084 31.5043 13.2111 31.9134 13.3806C33.1386 13.8881 34.1119 14.8614 34.6194 16.0866C34.7889 16.4957 34.8916 16.9993 34.9452 17.7851C34.9995 18.5799 35 19.5885 35 21C35 21.5523 35.4477 22 36 22H39C41.2091 22 43 23.7909 43 26C43 28.2091 41.2091 30 39 30H36C35.4477 30 35 30.4477 35 31V34.4C35 36.0967 34.9992 37.309 34.9216 38.2594C34.8449 39.198 34.6982 39.7927 34.455 40.27C33.9757 41.2108 33.2108 41.9757 32.27 42.455C31.7927 42.6982 31.198 42.8449 30.2594 42.9216C29.309 42.9992 28.0967 43 26.4 43H26V40.5C26 37.4624 23.5376 35 20.5 35C17.4624 35 15 37.4624 15 40.5V43H13.6C11.9033 43 10.691 42.9992 9.74065 42.9216C8.80197 42.8449 8.20732 42.6982 7.73005 42.455C6.78924 41.9757 6.02434 41.2108 5.54497 40.27C5.30179 39.7927 5.15512 39.198 5.07843 38.2594C5.00078 37.309 5 36.0967 5 34.4V32H7C10.3137 32 13 29.3137 13 26C13 22.6863 10.3137 20 7 20H5.00097C5.00373 19.0903 5.01431 18.3782 5.05477 17.7851C5.10839 16.9993 5.21113 16.4957 5.3806 16.0866C5.88807 14.8614 6.86144 13.8881 8.08658 13.3806C8.49574 13.2111 8.99931 13.1084 9.78514 13.0548C10.5799 13.0005 11.5885 13 13 13H15C15.5523 13 16 12.5523 16 12V9Z" fill="#7F4800"/>
</svg>
