<svg width="48" height="48" viewBox="0 0 48 48" fill="none" xmlns="http://www.w3.org/2000/svg">
<path opacity="0.3" fill-rule="evenodd" clip-rule="evenodd" d="M21.5312 3.9H24.9687V5H26.9C27.6808 5 28.3572 5.44748 28.6865 6.1H31.75V6.80666L34.8094 8.84627C35.3658 9.2172 35.7 9.84166 35.7 10.5104L35.7 19.5H38.5938V19.8784H39.973L42 22.9189V26.7365C42 37.0622 33.5976 45.4189 23.25 45.4189C12.9024 45.4189 5.5 37.0622 5.5 26.7365V20.3682L6.52703 14H7.76875V12.8H10.95L14.5875 7.95002V6.1H17.6V5H21.5312V3.9ZM38 22.8V26.7365C38 34.8078 31.3741 41.3649 23.25 41.3649C15.1259 41.3649 8.5 34.8078 8.5 26.7365V16.1H8.50107C8.50036 16.0834 8.5 16.0668 8.5 16.05C8.5 15.4149 9.01487 14.9 9.65 14.9C10.2851 14.9 10.8 15.4149 10.8 16.05C10.8 16.0668 10.7996 16.0834 10.7989 16.1H10.8L10.8 21.53C10.8 22.7726 11.8074 23.78 13.05 23.78C14.2926 23.78 15.3 22.7726 15.3 21.53L15.3 9.4H15.3011C15.3004 9.38455 15.3001 9.36901 15.3 9.35341L15.3 9.35L15.3 9.34659C15.3018 8.71303 15.816 8.2 16.45 8.2C17.0851 8.2 17.6 8.71487 17.6 9.35C17.6 9.36675 17.5996 9.38342 17.5989 9.4H17.6L17.6 21.53C17.6 22.7726 18.6074 23.78 19.85 23.78C21.0926 23.78 22.1 22.7726 22.1 21.53L22.1 7.2H22.1011C22.1004 7.18455 22.1001 7.16902 22.1 7.15342L22.1 7.15L22.1 7.14658C22.1019 6.51303 22.616 6 23.25 6C23.8838 6 24.3979 6.51277 24.4 7.1461V7.1539C24.4 7.16419 24.3998 7.17445 24.3995 7.18468L24.3989 7.2H24.4L24.4 21.53C24.4 22.7726 25.4074 23.78 26.65 23.78C27.8926 23.78 28.9 22.7726 28.9 21.53L28.9 9.4H28.9011C28.9008 9.39423 28.9006 9.38844 28.9004 9.38265C28.9002 9.37292 28.9 9.36315 28.9 9.35335L28.9 9.35L28.9 9.34664C28.9018 8.71306 29.416 8.2 30.05 8.2C30.6851 8.2 31.2 8.71487 31.2 9.35C31.2 9.36675 31.1996 9.38342 31.1989 9.4H31.2L31.2 28.19C31.2 29.4326 32.2074 30.44 33.45 30.44C34.6926 30.44 35.7 29.4326 35.7 28.19V22.8H35.7011C35.7004 22.7834 35.7 22.7668 35.7 22.75C35.7 22.1149 36.2149 21.6 36.85 21.6C37.4851 21.6 38 22.1149 38 22.75C38 22.7668 37.9996 22.7834 37.9989 22.8H38Z" fill="#535B65"/>
<path fill-rule="evenodd" clip-rule="evenodd" d="M37.6 17.5556C37.1173 17.5556 36.6477 17.6187 36.2 17.7375V9.55556C36.2 6.57288 33.7448 4.22222 30.8 4.22222C30.0476 4.22222 29.3272 4.37566 28.6716 4.65387C27.73 3.05748 25.9751 2 24 2C22.0249 2 20.27 3.05748 19.3284 4.65387C18.6728 4.37566 17.9524 4.22222 17.2 4.22222C14.2552 4.22222 11.8 6.57288 11.8 9.55556V11.0708C11.3523 10.9521 10.8827 10.8889 10.4 10.8889C7.45518 10.8889 5 13.2396 5 16.2222V27.3333C5 37.6798 13.5441 46 24 46C34.4559 46 43 37.6798 43 27.3333V22.8889C43 19.9062 40.5448 17.5556 37.6 17.5556ZM26.4 7.33333C26.4 6.06324 25.3442 5 24 5C22.6558 5 21.6 6.06324 21.6 7.33333V21.7778C21.6 22.3301 21.1523 22.7778 20.6 22.7778C20.0477 22.7778 19.6 22.3301 19.6 21.7778V9.55556C19.6 8.28547 18.5442 7.22222 17.2 7.22222C15.8558 7.22222 14.8 8.28547 14.8 9.55556V21.7778C14.8 22.3301 14.3523 22.7778 13.8 22.7778C13.2477 22.7778 12.8 22.3301 12.8 21.7778V16.2222C12.8 14.9521 11.7442 13.8889 10.4 13.8889C9.05576 13.8889 8 14.9521 8 16.2222V27.3333C8 35.9672 15.1447 43 24 43C32.8553 43 40 35.9672 40 27.3333V22.8889C40 21.6188 38.9442 20.5556 37.6 20.5556C36.2558 20.5556 35.2 21.6188 35.2 22.8889V28.4444C35.2 28.9967 34.7523 29.4444 34.2 29.4444C33.6477 29.4444 33.2 28.9967 33.2 28.4444V9.55556C33.2 8.28547 32.1442 7.22222 30.8 7.22222C29.4558 7.22222 28.4 8.28547 28.4 9.55556V21.7778C28.4 22.3301 27.9523 22.7778 27.4 22.7778C26.8477 22.7778 26.4 22.3301 26.4 21.7778V7.33333Z" fill="#535B65"/>
</svg>
