<svg width="48" height="48" viewBox="0 0 48 48" fill="none" xmlns="http://www.w3.org/2000/svg">
<path opacity="0.1" fill-rule="evenodd" clip-rule="evenodd" d="M9 4H8V8H4V9H8V18H4V19H8V28H4V29H8V38H4V39H8V44H9V39H18V44H19V39H28V44H29V39H38V44H39V39H44V38H39V29H44V28H39V19H44V18H39V9H44V8H39V4H38V8H29V4H28V8H19V4H18V8H9V4ZM38 38V29H29V38H38ZM28 38V29H19V38H28ZM18 38V29H9V38H18ZM18 28H9V19H18V28ZM28 28H19V19H28V28ZM38 28H29V19H38V28ZM38 18V9H29V18H38ZM28 18V9H19V18H28ZM18 18V9H9V18H18Z" fill="#002E82"/>
<path d="M24.6401 11.79L23.8301 13.19L23.0351 11.785C22.5251 10.91 21.4201 10.615 20.5451 11.115C19.6701 11.625 19.3751 12.73 19.8751 13.605L21.7301 16.825L15.7901 27.12H11.1501C10.1401 27.12 9.33008 27.93 9.33008 28.94C9.33008 29.95 10.1401 30.76 11.1501 30.76H27.7001C28.4951 29.27 27.4701 27.12 25.6401 27.12H19.9951L27.8001 13.61C28.3001 12.735 28.0051 11.62 27.1301 11.12C26.2551 10.62 25.1401 10.915 24.6401 11.79Z" fill="#002E82"/>
<path d="M15.0601 35.67L16.8101 32.635C15.8651 31.495 14.6701 31.145 13.2001 31.6L11.9001 33.85C11.4001 34.725 11.6951 35.84 12.5701 36.34C13.4451 36.84 14.5601 36.545 15.0601 35.67Z" fill="#002E82"/>
<path d="M36.6151 27.13H31.8801C31.5174 26.502 31.1686 25.8979 30.8336 25.3177C28.9658 22.0829 27.5284 19.5933 26.5151 17.855C25.4401 18.75 24.3501 21.39 25.8751 24.02C26.5363 25.1672 27.3463 26.5695 28.3041 28.2278C29.5045 30.306 30.9371 32.7861 32.6001 35.67C33.1101 36.545 34.2151 36.84 35.0901 36.34C35.9651 35.83 36.2601 34.725 35.7601 33.85L33.9851 30.77H36.6151C37.6251 30.77 38.4351 29.96 38.4351 28.95C38.4351 27.94 37.6251 27.13 36.6151 27.13Z" fill="#002E82"/>
<path fill-rule="evenodd" clip-rule="evenodd" d="M46.005 12.08V35.92C46.005 41.4904 41.4888 46 35.925 46H12.08C6.51124 46 2 41.4904 2 35.925V12.08C2 6.51043 6.51043 2 12.08 2H35.92C41.49 2 45.9988 6.51037 46.005 12.0778L46.005 12.08ZM12.08 5C8.16728 5 5 8.16728 5 12.08V35.925C5 39.8323 8.16688 43 12.08 43H35.925C39.8331 43 43.005 39.8323 43.005 35.92V12.0811C43.0006 8.16731 39.8325 5 35.92 5H12.08Z" fill="#002E82"/>
</svg>
