<svg width="48" height="48" viewBox="0 0 48 48" fill="none" xmlns="http://www.w3.org/2000/svg">
<path fill-rule="evenodd" clip-rule="evenodd" d="M46 24C46 36.1503 36.1503 46 24 46C11.8497 46 2 36.1503 2 24C2 11.8497 11.8497 2 24 2C36.1503 2 46 11.8497 46 24ZM24 5C13.5066 5 5 13.5066 5 24C5 34.4934 13.5066 43 24 43C34.4934 43 43 34.4934 43 24C43 13.5066 34.4934 5 24 5ZM14 24C14 18.4772 18.4772 14 24 14C29.5228 14 34 18.4772 34 24C34 29.5228 29.5228 34 24 34C18.4772 34 14 29.5228 14 24ZM24 12C17.3726 12 12 17.3726 12 24C12 30.6274 17.3726 36 24 36C30.6274 36 36 30.6274 36 24C36 17.3726 30.6274 12 24 12Z" fill="#535B65"/>
<path fill-rule="evenodd" clip-rule="evenodd" d="M19.1305 33.8662C18.5202 33.5644 17.9419 33.2076 17.402 32.8023L13.9945 41.3212C14.5725 41.6558 15.1688 41.9623 15.7815 42.2388L19.1305 33.8662ZM17.7377 43C19.7076 43.6489 21.8128 44 24 44C26.1872 44 28.2924 43.6489 30.2623 43H17.7377ZM32.2185 42.2388C32.8312 41.9623 33.4275 41.6558 34.0055 41.3212L30.598 32.8023C30.0581 33.2076 29.4798 33.5644 28.8695 33.8662L32.2185 42.2388ZM32.8023 30.598L41.3212 34.0055C41.6558 33.4275 41.9623 32.8312 42.2388 32.2185L33.8662 28.8695C33.5644 29.4798 33.2076 30.0581 32.8023 30.598ZM33.8662 19.1305L42.2388 15.7815C41.9623 15.1688 41.6558 14.5725 41.3212 13.9945L32.8023 17.402C33.2076 17.9419 33.5644 18.5202 33.8662 19.1305ZM30.598 15.1977L34.0055 6.67883C33.4275 6.34423 32.8312 6.03773 32.2185 5.7612L28.8695 14.1338C29.4798 14.4356 30.0581 14.7924 30.598 15.1977ZM30.2623 5L17.7377 5C19.7076 4.35109 21.8128 4 24 4C26.1872 4 28.2924 4.3511 30.2623 5ZM15.7815 5.7612C15.1688 6.03773 14.5725 6.34423 13.9945 6.67883L17.402 15.1977C17.9419 14.7924 18.5202 14.4356 19.1305 14.1338L15.7815 5.7612ZM15.1977 17.402L6.67883 13.9945C6.34423 14.5725 6.03773 15.1688 5.7612 15.7815L14.1338 19.1305C14.4356 18.5202 14.7924 17.9419 15.1977 17.402ZM5 17.7377L5 30.2623C4.35109 28.2924 4 26.1872 4 24C4 21.8128 4.35109 19.7076 5 17.7377ZM5.7612 32.2185C6.03773 32.8312 6.34423 33.4275 6.67883 34.0055L15.1977 30.598C14.7924 30.0581 14.4356 29.4798 14.1338 28.8695L5.7612 32.2185ZM43 17.7377V30.2623C43.6489 28.2924 44 26.1872 44 24C44 21.8128 43.6489 19.7076 43 17.7377Z" fill="#535B65"/>
<path opacity="0.3" fill-rule="evenodd" clip-rule="evenodd" d="M14.8786 41.8036L18.2486 33.3785C16.7733 32.4718 15.5282 31.2267 14.6215 29.7514L6.19641 33.1214C8.10829 36.8456 11.1544 39.8917 14.8786 41.8036ZM6.19641 14.8786L14.6215 18.2486C15.5282 16.7733 16.7733 15.5282 18.2486 14.6215L14.8786 6.1964C11.1544 8.10827 8.10829 11.1544 6.19641 14.8786ZM41.8036 33.1214C39.8152 36.9948 36.5999 40.1346 32.6708 42.0278C32.8221 41.9549 32.9723 41.8801 33.1214 41.8036L29.7514 33.3785C31.2267 32.4718 32.4718 31.2267 33.3785 29.7514L41.8036 33.1214ZM42.0278 15.3292C41.9549 15.1779 41.8802 15.0277 41.8036 14.8786L33.3785 18.2486C32.4718 16.7733 31.2267 15.5282 29.7514 14.6215L33.1215 6.1964C36.9948 8.18483 40.1346 11.4001 42.0278 15.3292Z" fill="#535B65"/>
</svg>
