<svg width="48" height="48" viewBox="0 0 48 48" fill="none" xmlns="http://www.w3.org/2000/svg">
<g opacity="0.3">
<path fill-rule="evenodd" clip-rule="evenodd" d="M23 23V24H25V23C25 21.3431 26.3431 20 28 20C29.6569 20 31 21.3431 31 23C31 24.6569 29.6569 26 28 26H27V34H25V26H23V34H21V26H20C18.3431 26 17 24.6569 17 23C17 21.3431 18.3431 20 20 20C21.6569 20 23 21.3431 23 23ZM20 24C20.5523 24 21 23.5523 21 23C21 22.4477 20.5523 22 20 22C19.4477 22 19 22.4477 19 23C19 23.5523 19.4477 24 20 24ZM29 23C29 23.5523 28.5523 24 28 24C27.4477 24 27 23.5523 27 23C27 22.4477 27.4477 22 28 22C28.5523 22 29 22.4477 29 23Z" fill="#535B65"/>
<path d="M20.546 36.109C20.7599 36 21.0399 36 21.6 36H26.4C26.9601 36 27.2401 36 27.454 36.109C27.6422 36.2049 27.7951 36.3578 27.891 36.546C28 36.7599 28 37.0399 28 37.6V39C28 39.9772 27.9952 40.3198 27.9424 40.5853C27.7056 41.7753 26.7753 42.7056 25.5853 42.9424C25.3198 42.9952 24.9772 43 24 43C23.0228 43 22.6802 42.9952 22.4147 42.9424C21.2247 42.7056 20.2944 41.7753 20.0576 40.5853C20.0048 40.3198 20 39.9772 20 39V37.6C20 37.0399 20 36.7599 20.109 36.546C20.2049 36.3578 20.3578 36.2049 20.546 36.109Z" fill="#535B65"/>
</g>
<path d="M25 3C25 2.44772 24.5523 2 24 2C23.4477 2 23 2.44772 23 3V5C23 5.55228 23.4477 6 24 6C24.5523 6 25 5.55228 25 5V3Z" fill="#535B65"/>
<path d="M10.5069 8.0927C10.1164 7.70217 9.48322 7.70217 9.0927 8.0927C8.70217 8.48322 8.70217 9.11639 9.0927 9.50691L10.2929 10.7071C10.6834 11.0976 11.3166 11.0976 11.7071 10.7071C12.0976 10.3166 12.0976 9.68342 11.7071 9.29289L10.5069 8.0927Z" fill="#535B65"/>
<path d="M38.9075 9.507C39.2981 9.11653 39.2982 8.48336 38.9077 8.09279C38.5172 7.70221 37.8841 7.70213 37.4935 8.09261L36.293 9.2928C35.9024 9.68328 35.9023 10.3164 36.2928 10.707C36.6833 11.0976 37.3164 11.0977 37.707 10.7072L38.9075 9.507Z" fill="#535B65"/>
<path d="M4 22C3.44772 22 3 22.4477 3 23C3 23.5523 3.44772 24 4 24H6C6.55228 24 7 23.5523 7 23C7 22.4477 6.55228 22 6 22H4Z" fill="#535B65"/>
<path d="M42 22C41.4477 22 41 22.4477 41 23C41 23.5523 41.4477 24 42 24H44C44.5523 24 45 23.5523 45 23C45 22.4477 44.5523 22 44 22H42Z" fill="#535B65"/>
<path fill-rule="evenodd" clip-rule="evenodd" d="M9 23C9 28.7561 12.2422 33.7549 17 36.2699L16.9999 39.1678C16.9993 39.9292 16.9988 40.5848 17.1153 41.1705C17.5887 43.5507 19.4493 45.4113 21.8294 45.8847C22.4152 46.0012 23.0708 46.0007 23.8322 46.0001L24 46L24.1678 46.0001C24.9292 46.0007 25.5848 46.0012 26.1705 45.8847C28.5507 45.4113 30.4113 43.5507 30.8847 41.1705C31.0012 40.5848 31.0007 39.9292 31.0001 39.1678L31 36.2699C35.7578 33.7549 39 28.7561 39 23C39 14.7157 32.2843 8 24 8C15.7157 8 9 14.7157 9 23ZM36 23C36 27.622 33.3869 31.6337 29.5574 33.6383C29.0687 33.8941 28.5166 34 27.965 34C20.4999 34 27.1639 34 20.0368 34C19.4852 34 18.9313 33.8941 18.4426 33.6383C14.6131 31.6337 12 27.622 12 23C12 16.3726 17.3726 11 24 11C30.6274 11 36 16.3726 36 23ZM21.6 36C21.04 36 20.7599 36 20.546 36.109C20.3579 36.2049 20.2049 36.3578 20.109 36.546C20 36.7599 20 37.0399 20 37.6V39C20 39.9772 20.0049 40.3198 20.0577 40.5853C20.2944 41.7753 21.2247 42.7056 22.4147 42.9424C22.6802 42.9952 23.0228 43 24 43C24.9772 43 25.3198 42.9952 25.5853 42.9424C26.7753 42.7056 27.7056 41.7753 27.9424 40.5853C27.9952 40.3198 28 39.9772 28 39V37.6C28 37.0399 28 36.7599 27.891 36.546C27.7951 36.3578 27.6422 36.2049 27.454 36.109C27.2401 36 26.9601 36 26.4 36H21.6Z" fill="#535B65"/>
</svg>
