<svg width="48" height="48" viewBox="0 0 48 48" fill="none" xmlns="http://www.w3.org/2000/svg">
<path fill-rule="evenodd" clip-rule="evenodd" d="M24.0002 37C19.1097 37 14.9966 40.3448 13.8309 44.8739C13.6245 45.6762 12.8067 46.1591 12.0044 45.9527C11.2021 45.7462 10.7191 44.9284 10.9256 44.1261C12.4242 38.3038 17.7077 34 24.0002 34C30.2928 34 35.5763 38.3038 37.0748 44.1261C37.2813 44.9284 36.7984 45.7462 35.9961 45.9527C35.1938 46.1591 34.376 45.6762 34.1695 44.8739C33.0038 40.3448 28.8908 37 24.0002 37Z" fill="#535B65"/>
<path fill-rule="evenodd" clip-rule="evenodd" d="M24 32C27.866 32 31 28.866 31 25C31 21.134 27.866 18 24 18C20.134 18 17 21.134 17 25C17 28.866 20.134 32 24 32ZM24 29C26.2091 29 28 27.2091 28 25C28 22.7909 26.2091 21 24 21C21.7909 21 20 22.7909 20 25C20 27.2091 21.7909 29 24 29Z" fill="#535B65"/>
<path opacity="0.3" fill-rule="evenodd" clip-rule="evenodd" d="M24 15C18.4772 15 14 19.4772 14 25C14 27.7927 15.1435 30.3166 16.9904 32.132C17.3842 32.5191 17.3897 33.1523 17.0025 33.5462C16.6154 33.94 15.9822 33.9455 15.5884 33.5583C13.3747 31.3824 12 28.3508 12 25C12 18.3726 17.3726 13 24 13C30.6274 13 36 18.3726 36 25C36 28.3508 34.6253 31.3824 32.4116 33.5583C32.0178 33.9455 31.3846 33.94 30.9975 33.5462C30.6103 33.1523 30.6158 32.5191 31.0096 32.132C32.8565 30.3166 34 27.7927 34 25C34 19.4772 29.5228 15 24 15Z" fill="#535B65"/>
<path opacity="0.3" fill-rule="evenodd" clip-rule="evenodd" d="M24 11C16.268 11 10 17.268 10 25C10 28.6353 11.3843 31.945 13.6562 34.4344C14.0285 34.8424 13.9996 35.4749 13.5917 35.8472C13.1837 36.2195 12.5512 36.1906 12.1789 35.7826C9.58391 32.9392 8 29.1534 8 25C8 16.1634 15.1634 9 24 9C32.8366 9 40 16.1634 40 25C40 29.1534 38.4161 32.9392 35.8211 35.7826C35.4488 36.1906 34.8163 36.2195 34.4083 35.8472C34.0004 35.4749 33.9715 34.8424 34.3438 34.4344C36.6157 31.945 38 28.6353 38 25C38 17.268 31.732 11 24 11Z" fill="#535B65"/>
<path opacity="0.3" fill-rule="evenodd" clip-rule="evenodd" d="M24 7C14.0589 7 6 15.0589 6 25C6 29.7948 7.87339 34.1498 10.9301 37.3766C11.31 37.7776 11.2928 38.4105 10.8919 38.7903C10.4909 39.1701 9.858 39.153 9.47818 38.752C6.08359 35.1686 4 30.3265 4 25C4 13.9543 12.9543 5 24 5C35.0457 5 44 13.9543 44 25C44 30.3265 41.9164 35.1686 38.5218 38.752C38.142 39.153 37.5091 39.1701 37.1081 38.7903C36.7072 38.4105 36.69 37.7776 37.0699 37.3766C40.1266 34.1498 42 29.7948 42 25C42 15.0589 33.9411 7 24 7Z" fill="#535B65"/>
<path opacity="0.3" fill-rule="evenodd" clip-rule="evenodd" d="M24 3C11.8497 3 2 12.8497 2 25C2 31.2976 4.64478 36.9759 8.88704 40.9875C9.28831 41.367 9.306 41.9999 8.92653 42.4012C8.54707 42.8025 7.91415 42.8201 7.51287 42.4407C2.88778 38.067 0 31.8699 0 25C0 11.7452 10.7452 1 24 1C37.2548 1 48 11.7452 48 25C48 31.8699 45.1122 38.067 40.4871 42.4407C40.0858 42.8201 39.4529 42.8025 39.0735 42.4012C38.694 41.9999 38.7117 41.367 39.113 40.9875C43.3552 36.9759 46 31.2976 46 25C46 12.8497 36.1503 3 24 3Z" fill="#535B65"/>
</svg>
