<svg width="48" height="48" viewBox="0 0 48 48" fill="none" xmlns="http://www.w3.org/2000/svg">
<path d="M6 6L42 42" stroke="#535B65" stroke-width="2" stroke-linecap="round"/>
<path fill-rule="evenodd" clip-rule="evenodd" d="M36.0007 36.0007L33.8427 33.8427C31.0866 35.6807 27.7895 37 24.0008 37C19.205 37 15.1968 34.8861 12.0766 32.2819C8.95404 29.6758 6.78111 26.6268 5.68575 24.8924C5.3972 24.4355 5.36193 24.362 5.33017 24.2234C5.30661 24.1206 5.30661 23.8794 5.33017 23.7766C5.36193 23.638 5.3972 23.5645 5.68575 23.1076C6.78111 21.3732 8.95403 18.3242 12.0766 15.7181C12.7316 15.1714 13.4257 14.6464 14.158 14.158L11.9999 11.9999C11.351 12.4546 10.7356 12.9297 10.1543 13.4149C6.7018 16.2964 4.33474 19.6286 3.14924 21.5057L3.10107 21.5817C2.86583 21.9519 2.5604 22.4327 2.406 23.1063C2.28133 23.6502 2.28133 24.3498 2.406 24.8937C2.5604 25.5673 2.86583 26.0481 3.10107 26.4183L3.14924 26.4943C4.33474 28.3714 6.7018 31.7036 10.1543 34.5851C13.6115 37.4706 18.2775 40 24.0008 40C28.7614 40 32.7904 38.25 36.0007 36.0007Z" fill="#535B65"/>
<path opacity="0.3" fill-rule="evenodd" clip-rule="evenodd" d="M11.9999 11.9999C15.2104 9.75036 19.2398 8 24.0008 8C29.7241 8 34.3901 10.5294 37.8473 13.4149C41.2998 16.2964 43.6669 19.6286 44.8524 21.5057L44.9006 21.5817C45.1358 21.952 45.4412 22.4327 45.5956 23.1063C45.7203 23.6502 45.7203 24.3498 45.5956 24.8937C45.4412 25.5673 45.1358 26.0481 44.9005 26.4183L44.8524 26.4943C43.6669 28.3714 41.2998 31.7036 37.8473 34.5851C37.2657 35.0705 36.65 35.5458 36.0007 36.0007L33.8427 33.8427C34.5753 33.3541 35.2698 32.8288 35.925 32.2819C39.0476 29.6758 41.2205 26.6268 42.3159 24.8924C42.6044 24.4355 42.6397 24.362 42.6714 24.2234C42.695 24.1206 42.695 23.8794 42.6714 23.7766C42.6397 23.638 42.6044 23.5645 42.3159 23.1076C41.2205 21.3732 39.0476 18.3242 35.925 15.7181C32.8048 13.1139 28.7966 11 24.0008 11C20.2117 11 16.9142 12.3196 14.158 14.158L11.9999 11.9999Z" fill="#535B65"/>
<path d="M28.9497 28.9497C26.2161 31.6834 21.7839 31.6834 19.0502 28.9497C16.3166 26.2161 16.3166 21.7839 19.0502 19.0503" stroke="#535B65" stroke-width="2"/>
<path opacity="0.3" d="M28.9497 28.9497C31.6834 26.2161 31.6834 21.7839 28.9497 19.0503C26.2161 16.3166 21.7839 16.3166 19.0502 19.0503" stroke="#535B65" stroke-width="2"/>
<path opacity="0.3" d="M19.7574 28.2426C22.1005 30.5858 25.8995 30.5858 28.2427 28.2426L19.7574 19.7574C17.4142 22.1005 17.4142 25.8995 19.7574 28.2426Z" fill="#535B65"/>
</svg>
