<svg width="48" height="48" viewBox="0 0 48 48" fill="none" xmlns="http://www.w3.org/2000/svg">
<path d="M4.34918 26.4898C4.25087 26.7807 4.13676 27.4887 4.1387 27.7957C4.14185 28.2966 4.17459 28.422 4.24007 28.6727C5.04146 31.7412 7.76474 34 11.0009 34C14.2372 34 16.9604 31.7412 17.7618 28.6727C17.8273 28.422 17.86 28.2966 17.8632 27.7957C17.8651 27.4887 17.751 26.7807 17.6527 26.4898M30.3492 26.4898C30.2509 26.7807 30.1368 27.4887 30.1387 27.7957C30.1419 28.2966 30.1746 28.422 30.2401 28.6727C31.0415 31.7412 33.7647 34 37.0009 34C40.2372 34 42.9604 31.7412 43.7618 28.6727C43.8273 28.422 43.86 28.2966 43.8632 27.7957C43.8651 27.4887 43.751 26.7807 43.6527 26.4898" stroke="#535B65" stroke-width="2" stroke-linecap="round" stroke-linejoin="round"/>
<path d="M4.34918 26.4898C4.50956 26.0153 4.68317 25.7474 5.03037 25.2118L11.001 16L16.9715 25.2118C17.3187 25.7474 17.4923 26.0153 17.6527 26.4898M30.3492 26.4898C30.5096 26.0153 30.6832 25.7474 31.0304 25.2118L37.001 16L42.9715 25.2118C43.3187 25.7474 43.4923 26.0153 43.6527 26.4898" stroke="#535B65" stroke-width="2" stroke-linecap="round" stroke-linejoin="round"/>
<circle cx="24" cy="9" r="5" stroke="#535B65" stroke-width="2"/>
<circle cx="24" cy="9" r="4" stroke="#535B65" stroke-width="2"/>
<path d="M8 9H19M29 9H40" stroke="#535B65" stroke-width="2" stroke-linecap="round"/>
<path d="M24 14V42" stroke="#535B65" stroke-width="2" stroke-linecap="round" stroke-linejoin="round"/>
<rect x="7.5" y="41.5" width="33" height="2" rx="1" fill="#535B65" stroke="#535B65"/>
<g opacity="0.3">
<mask id="path-8-inside-1_2505_2051" fill="white">
<path fill-rule="evenodd" clip-rule="evenodd" d="M4.22966 27C4.17695 27.2927 4.13755 27.6143 4.1387 27.7957C4.14185 28.2966 4.17459 28.422 4.24007 28.6727C5.04146 31.7412 7.76474 34 11.0009 34C14.2372 34 16.9604 31.7412 17.7618 28.6727C17.8273 28.422 17.86 28.2966 17.8632 27.7957C17.8643 27.6143 17.8249 27.2927 17.7722 27H4.22966ZM30.2297 27C30.177 27.2927 30.1376 27.6143 30.1387 27.7957C30.1419 28.2966 30.1746 28.422 30.2401 28.6727C31.0415 31.7412 33.7647 34 37.0009 34C40.2372 34 42.9604 31.7412 43.7618 28.6727C43.8273 28.422 43.86 28.2966 43.8632 27.7957C43.8643 27.6143 43.8249 27.2927 43.7722 27H30.2297Z"/>
</mask>
<path fill-rule="evenodd" clip-rule="evenodd" d="M4.22966 27C4.17695 27.2927 4.13755 27.6143 4.1387 27.7957C4.14185 28.2966 4.17459 28.422 4.24007 28.6727C5.04146 31.7412 7.76474 34 11.0009 34C14.2372 34 16.9604 31.7412 17.7618 28.6727C17.8273 28.422 17.86 28.2966 17.8632 27.7957C17.8643 27.6143 17.8249 27.2927 17.7722 27H4.22966ZM30.2297 27C30.177 27.2927 30.1376 27.6143 30.1387 27.7957C30.1419 28.2966 30.1746 28.422 30.2401 28.6727C31.0415 31.7412 33.7647 34 37.0009 34C40.2372 34 42.9604 31.7412 43.7618 28.6727C43.8273 28.422 43.86 28.2966 43.8632 27.7957C43.8643 27.6143 43.8249 27.2927 43.7722 27H30.2297Z" fill="#535B65"/>
<path d="M4.22966 27V25C3.26183 25 2.43287 25.693 2.26133 26.6455L4.22966 27ZM4.1387 27.7957L2.13874 27.8083V27.8083L4.1387 27.7957ZM4.24007 28.6727L2.30498 29.1781L4.24007 28.6727ZM17.7618 28.6727L15.8267 28.1673V28.1673L17.7618 28.6727ZM17.8632 27.7957L19.8632 27.8083V27.8083L17.8632 27.7957ZM17.7722 27L19.7406 26.6455C19.569 25.693 18.7401 25 17.7722 25V27ZM30.2297 27V25C29.2618 25 28.4329 25.693 28.2613 26.6455L30.2297 27ZM30.1387 27.7957L32.1387 27.7831V27.7831L30.1387 27.7957ZM30.2401 28.6727L28.305 29.1781L28.305 29.1781L30.2401 28.6727ZM43.7618 28.6727L45.6969 29.1781V29.1781L43.7618 28.6727ZM43.8632 27.7957L41.8632 27.7831V27.7831L43.8632 27.7957ZM43.7722 27L45.7406 26.6455C45.569 25.693 44.7401 25 43.7722 25V27ZM2.26133 26.6455C2.20348 26.9667 2.13639 27.4361 2.13874 27.8083L6.13866 27.7831C6.13881 27.8073 6.13774 27.8089 6.13981 27.7803C6.14163 27.7551 6.145 27.7185 6.15051 27.6714C6.16162 27.5761 6.17835 27.4636 6.198 27.3545L2.26133 26.6455ZM2.13874 27.8083C2.14052 28.0917 2.15049 28.3452 2.18368 28.5933C2.21871 28.8551 2.27373 29.0584 2.30498 29.1781L6.17517 28.1673C6.15699 28.0977 6.1518 28.077 6.14836 28.0617C6.14734 28.0572 6.14732 28.0567 6.14769 28.0588C6.14784 28.0596 6.14801 28.0606 6.14815 28.0615C6.1483 28.0624 6.14836 28.0629 6.14835 28.0628C6.14801 28.0603 6.14003 28.0007 6.13866 27.7831L2.13874 27.8083ZM2.30498 29.1781C3.32167 33.0709 6.79818 36 11.0009 36V32C8.7313 32 6.76125 30.4114 6.17517 28.1673L2.30498 29.1781ZM11.0009 36C15.2037 36 18.6802 33.0709 19.6969 29.1781L15.8267 28.1673C15.2406 30.4114 13.2706 32 11.0009 32V36ZM19.6969 29.1781C19.7282 29.0584 19.7832 28.8551 19.8182 28.5933C19.8514 28.3452 19.8614 28.0917 19.8632 27.8083L15.8632 27.7831C15.8619 28.0007 15.8539 28.0603 15.8536 28.0628C15.8535 28.0629 15.8536 28.0624 15.8537 28.0615C15.8539 28.0606 15.8541 28.0596 15.8542 28.0588C15.8546 28.0568 15.8546 28.0572 15.8535 28.0617C15.8501 28.077 15.8449 28.0977 15.8267 28.1673L19.6969 29.1781ZM19.8632 27.8083C19.8655 27.4361 19.7984 26.9667 19.7406 26.6455L15.8039 27.3545C15.8235 27.4636 15.8403 27.5761 15.8514 27.6714C15.8569 27.7185 15.8603 27.7551 15.8621 27.7803C15.8642 27.8089 15.8631 27.8073 15.8632 27.7831L19.8632 27.8083ZM17.7722 25H4.22966V29H17.7722V25ZM28.2613 26.6455C28.2035 26.9667 28.1364 27.4361 28.1387 27.8083L32.1387 27.7831C32.1388 27.8073 32.1377 27.8089 32.1398 27.7803C32.1416 27.7551 32.145 27.7185 32.1505 27.6714C32.1616 27.5761 32.1784 27.4636 32.198 27.3545L28.2613 26.6455ZM28.1387 27.8083C28.1405 28.0917 28.1505 28.3452 28.1837 28.5933C28.2187 28.8551 28.2737 29.0584 28.305 29.1781L32.1752 28.1673C32.157 28.0978 32.1518 28.077 32.1484 28.0617C32.1473 28.0572 32.1473 28.0567 32.1477 28.0588C32.1478 28.0596 32.148 28.0606 32.1482 28.0615C32.1483 28.0624 32.1484 28.0629 32.1483 28.0628C32.148 28.0603 32.14 28.0007 32.1387 27.7831L28.1387 27.8083ZM28.305 29.1781C29.3217 33.0709 32.7982 36 37.0009 36V32C34.7313 32 32.7612 30.4114 32.1752 28.1673L28.305 29.1781ZM37.0009 36C41.2037 36 44.6802 33.0709 45.6969 29.1781L41.8267 28.1673C41.2406 30.4114 39.2706 32 37.0009 32V36ZM45.6969 29.1781C45.7282 29.0584 45.7832 28.8551 45.8182 28.5933C45.8514 28.3452 45.8614 28.0917 45.8632 27.8083L41.8632 27.7831C41.8619 28.0007 41.8539 28.0603 41.8535 28.0628C41.8535 28.0629 41.8536 28.0624 41.8537 28.0615C41.8539 28.0606 41.854 28.0597 41.8542 28.0588C41.8546 28.0568 41.8546 28.0572 41.8535 28.0617C41.8501 28.077 41.8449 28.0978 41.8267 28.1673L45.6969 29.1781ZM45.8632 27.8083C45.8655 27.4361 45.7984 26.9667 45.7406 26.6455L41.8039 27.3545C41.8235 27.4636 41.8403 27.5761 41.8514 27.6714C41.8569 27.7185 41.8603 27.7551 41.8621 27.7803C41.8642 27.8089 41.8631 27.8073 41.8632 27.7831L45.8632 27.8083ZM43.7722 25H30.2297V29H43.7722V25Z" fill="#535B65" mask="url(#path-8-inside-1_2505_2051)"/>
</g>
<path d="M5 28H17" stroke="#535B65" stroke-width="2" stroke-linecap="round" stroke-linejoin="round"/>
<path d="M31 28H43" stroke="#535B65" stroke-width="2" stroke-linecap="round" stroke-linejoin="round"/>
</svg>
