<svg width="48" height="48" viewBox="0 0 48 48" fill="none" xmlns="http://www.w3.org/2000/svg">
<path opacity="0.4" d="M14 29L23.2845 33.6422C23.5468 33.7734 23.678 33.839 23.8156 33.8648C23.9375 33.8877 24.0625 33.8877 24.1844 33.8648C24.322 33.839 24.4532 33.7734 24.7155 33.6422L34 29L44 34L24.7155 43.6422C24.4532 43.7734 24.322 43.839 24.1844 43.8648C24.0625 43.8877 23.9375 43.8877 23.8156 43.8648C23.678 43.839 23.5468 43.7734 23.2845 43.6422L4 34L14 29Z" fill="#5E1251"/>
<path opacity="0.2" d="M14 19L23.2845 23.6422C23.5468 23.7734 23.678 23.839 23.8156 23.8648C23.9375 23.8877 24.0625 23.8877 24.1844 23.8648C24.322 23.839 24.4532 23.7734 24.7155 23.6422L34 19L44 24L24.7155 33.6422C24.4532 33.7734 24.322 33.839 24.1844 33.8648C24.0625 33.8877 23.9375 33.8877 23.8156 33.8648C23.678 33.839 23.5468 33.7734 23.2845 33.6422L4 24L14 19Z" fill="#5E1251"/>
<path fill-rule="evenodd" clip-rule="evenodd" d="M23.4468 2.16961C23.8124 2.10102 24.1876 2.10102 24.5532 2.16961C24.9861 2.25082 25.3722 2.44789 25.5588 2.54311L25.61 2.56905L44.8944 12.2113C45.572 12.5501 46 13.2426 46 14.0001C46 14.7577 45.572 15.4502 44.8944 15.789L38.4721 19.0001L44.8944 22.2113C45.572 22.5501 46 23.2426 46 24.0001C46 24.7577 45.572 25.4502 44.8944 25.789L38.4721 29.0001L44.8944 32.2113C45.572 32.5501 46 33.2426 46 34.0001C46 34.7577 45.572 35.4502 44.8944 35.789L25.61 45.4312L25.5588 45.4572C25.3722 45.5524 24.9861 45.7494 24.5532 45.8307C24.1876 45.8992 23.8124 45.8992 23.4468 45.8307C23.0139 45.7494 22.6278 45.5524 22.4412 45.4572L22.39 45.4312L3.10557 35.789C2.428 35.4502 2 34.7577 2 34.0001C2 33.2426 2.428 32.5501 3.10557 32.2113L9.52786 29.0001L3.10557 25.789C2.428 25.4502 2 24.7577 2 24.0001C2 23.2426 2.428 22.5501 3.10557 22.2113L9.52786 19.0001L3.10557 15.789C2.428 15.4502 2 14.7577 2 14.0001C2 13.2426 2.428 12.5501 3.10557 12.2113L22.39 2.56905L22.4412 2.5431C22.6278 2.44788 23.0139 2.25082 23.4468 2.16961ZM23.7317 22.7479C23.872 22.8181 23.943 22.8532 23.9958 22.8762L24 22.878L24.0042 22.8762C24.057 22.8532 24.128 22.8181 24.2683 22.7479L41.7639 14.0001L24.2683 5.25231C24.128 5.18215 24.057 5.147 24.0042 5.12404L24 5.12222L23.9958 5.12404C23.943 5.147 23.872 5.18215 23.7317 5.25231L6.23607 14.0001L23.7317 22.7479ZM6.23607 24.0001L14 20.1181L22.8372 24.5368L22.8922 24.5644C23.0948 24.6665 23.3497 24.795 23.6312 24.8478C23.8749 24.8935 24.1251 24.8935 24.3688 24.8478C24.6503 24.795 24.9052 24.6665 25.1078 24.5644L25.1628 24.5368L34 20.1181L41.7639 24.0001L24.2683 32.7479C24.128 32.8181 24.057 32.8532 24.0042 32.8762L24 32.878L23.9958 32.8762C23.943 32.8532 23.872 32.8181 23.7317 32.7479L6.23607 24.0001ZM25.1628 34.5368L34 30.1181L41.7639 34.0001L24.2683 42.7479C24.128 42.8181 24.057 42.8532 24.0042 42.8762L24 42.878L23.9958 42.8762C23.943 42.8532 23.872 42.8181 23.7317 42.7479L6.23607 34.0001L14 30.1181L22.8372 34.5368L22.8922 34.5644C23.0948 34.6665 23.3498 34.795 23.6312 34.8478C23.8749 34.8935 24.1251 34.8935 24.3688 34.8478C24.6502 34.795 24.9052 34.6665 25.1078 34.5644L25.1628 34.5368Z" fill="#5E1251"/>
</svg>
