<svg width="48" height="48" viewBox="0 0 48 48" fill="none" xmlns="http://www.w3.org/2000/svg">
<path d="M13.5014 6.40296C20.2703 3.86462 27.7297 3.86462 34.4986 6.40296L37.5801 7.55851C39.3364 8.21715 40.5 9.89619 40.5 11.772V23C40.5 28.3448 37.4446 32.8791 34.041 36.2783C30.6302 39.6847 26.8039 42.018 25.1163 42.9661C24.4154 43.3599 23.5846 43.3599 22.8837 42.9661C21.1961 42.018 17.3698 39.6847 13.959 36.2783C10.5554 32.8791 7.5 28.3448 7.5 23V11.772C7.5 9.89619 8.66358 8.21715 10.4199 7.55851L13.5014 6.40296Z" stroke="#535B65" stroke-width="3"/>
<path opacity="0.3" d="M25 12L16.0934 22.6879C15.7446 23.1064 15.5702 23.3157 15.5676 23.4925C15.5652 23.6461 15.6337 23.7923 15.7532 23.8889C15.8907 24 16.1632 24 16.708 24H24L23 32L31.9065 21.3121C32.2553 20.8936 32.4297 20.6843 32.4324 20.5075C32.4347 20.3539 32.3663 20.2077 32.2467 20.1111C32.1092 20 31.8368 20 31.292 20H24L25 12Z" fill="#535B65"/>
<path fill-rule="evenodd" clip-rule="evenodd" d="M25.3982 11.0827C25.8054 11.2595 26.0473 11.6835 25.9923 12.124L25.1328 19L31.3277 19C31.5687 19 31.8128 18.9999 32.0123 19.018C32.2009 19.035 32.562 19.0802 32.8753 19.3333C33.2338 19.6231 33.4392 20.0616 33.4323 20.5226C33.4262 20.9253 33.2297 21.2316 33.1221 21.3875C33.0083 21.5522 32.852 21.7397 32.6977 21.9248L23.7682 32.6402C23.484 32.9812 23.009 33.0941 22.6018 32.9173C22.1946 32.7405 21.9526 32.3165 22.0077 31.876L22.8672 25L16.6722 25C16.4312 25.0001 16.1871 25.0001 15.9877 24.982C15.7991 24.965 15.4379 24.9198 15.1247 24.6667C14.7661 24.3769 14.5607 23.9384 14.5677 23.4774C14.5737 23.0747 14.7703 22.7684 14.8779 22.6125C14.9917 22.4478 15.148 22.2603 15.3023 22.0751C15.31 22.066 15.3176 22.0568 15.3252 22.0477L24.2318 11.3598C24.516 11.0188 24.991 10.9059 25.3982 11.0827ZM17.135 23H24C24.2868 23 24.5598 23.1232 24.7497 23.3382C24.9395 23.5532 25.0278 23.8394 24.9923 24.124L24.4153 28.7395L30.8649 21H24C23.7132 21 23.4401 20.8768 23.2503 20.6618C23.0605 20.4468 22.9721 20.1606 23.0077 19.876L23.5846 15.2605L17.135 23Z" fill="#535B65"/>
</svg>
