<svg width="48" height="48" viewBox="0 0 48 48" fill="none" xmlns="http://www.w3.org/2000/svg">
<path opacity="0.15" d="M34 24C34 29.5228 29.5228 34 24 34C18.4772 34 14 29.5228 14 24C14 18.4772 18.4772 14 24 14C29.5228 14 34 18.4772 34 24Z" fill="#A22618"/>
<path d="M14.5073 7.54399C23.5874 2.30161 35.198 5.41267 40.4404 14.4927L40.5267 14.6422L36.1141 13.4598C35.5807 13.3169 35.0323 13.6335 34.8894 14.1669C34.7465 14.7004 35.063 15.2487 35.5965 15.3917L42.0198 17.1128C42.276 17.1814 42.549 17.1455 42.7786 17.0129C43.0083 16.8803 43.1759 16.6619 43.2446 16.4057L44.9657 9.98238C45.1086 9.44891 44.792 8.90058 44.2586 8.75763C43.7251 8.61469 43.1768 8.93127 43.0338 9.46474L42.0229 13.2377C36.1594 3.39818 23.4585 0.0666296 13.5073 5.81194C7.46569 9.30007 3.81542 15.3397 3.1299 21.7799C3.07145 22.3291 3.46926 22.8217 4.01844 22.8802C4.56762 22.9386 5.06021 22.5408 5.11867 21.9916C5.73943 16.1597 9.04272 10.699 14.5073 7.54399Z" fill="#A22618"/>
<path d="M44.8683 26.1908C44.9268 25.6416 44.529 25.149 43.9798 25.0906C43.4306 25.0321 42.938 25.4299 42.8796 25.9791C42.2588 31.8111 38.9555 37.2718 33.4909 40.4267C24.4108 45.6691 12.8002 42.5581 7.55783 33.478L7.47135 33.3282L11.8854 34.5109C12.4188 34.6539 12.9672 34.3373 13.1101 33.8038C13.2531 33.2704 12.9365 32.722 12.403 32.5791L5.9797 30.858C5.44624 30.715 4.8979 31.0316 4.75496 31.5651L3.03383 37.9884C2.89089 38.5218 3.20747 39.0702 3.74094 39.2131C4.27441 39.3561 4.82274 39.0395 4.96569 38.506L5.97626 34.7345C11.8401 44.5729 24.5402 47.9038 34.4909 42.1588C40.5325 38.6707 44.1828 32.6311 44.8683 26.1908Z" fill="#A22618"/>
<path d="M28.6027 27.668C28.7617 27.668 28.89 27.5396 28.89 27.3746V20.6263C28.89 20.4612 28.7617 20.3329 28.6027 20.3329H27.7531C27.6003 20.3329 27.4536 20.394 27.3435 20.504L24.1039 23.7865C24.0488 23.8415 23.951 23.8415 23.896 23.7865L20.6563 20.504C20.5463 20.394 20.3996 20.3329 20.2468 20.3329H19.3972C19.2382 20.3329 19.1099 20.4612 19.1099 20.6263V27.3746C19.1099 27.5396 19.2382 27.668 19.3972 27.668H20.6319C20.7908 27.668 20.9192 27.5396 20.9192 27.3746V23.542C20.9192 23.5053 20.962 23.4931 20.9803 23.5114L23.5904 26.152C23.8166 26.3843 24.1833 26.3843 24.4095 26.152L27.0196 23.5114C27.0379 23.4931 27.0807 23.5053 27.0807 23.542V27.3746C27.0807 27.5396 27.2091 27.668 27.368 27.668H28.6027Z" fill="#A22618"/>
<path fill-rule="evenodd" clip-rule="evenodd" d="M36 24.0004C36 30.6278 30.6274 36.0004 24 36.0004C17.3726 36.0004 12 30.6278 12 24.0004C12 17.373 17.3726 12.0004 24 12.0004C30.6274 12.0004 36 17.373 36 24.0004ZM15 24.0004C15 19.0327 19.0323 15.0004 24 15.0004C28.9677 15.0004 33 19.0327 33 24.0004C33 28.9681 28.9677 33.0004 24 33.0004C19.0323 33.0004 15 28.9681 15 24.0004Z" fill="#A22618"/>
</svg>
