<svg width="48" height="48" viewBox="0 0 48 48" fill="none" xmlns="http://www.w3.org/2000/svg">
<g opacity="0.2">
<path d="M29.7143 24L44 37V14L29.7143 24Z" fill="#326D80"/>
<path d="M4 37L18.2857 24L4 14V37Z" fill="#326D80"/>
</g>
<path opacity="0.1" d="M13.6 40H34.4C37.7603 40 39.4404 40 40.7239 39.346C41.8529 38.7708 42.7708 37.8529 43.346 36.7239L42.9999 36L29.7143 24L27.6701 25.4309C26.3478 26.3565 25.6866 26.8193 24.9674 26.9986C24.3322 27.157 23.6678 27.157 23.0325 26.9986C22.3133 26.8193 21.6522 26.3565 20.3298 25.4309L20.3298 25.4309L18.2857 24L5.00004 36L4.65393 36.7239C5.22917 37.8529 6.14705 38.7708 7.27603 39.346C8.5595 40 10.2397 40 13.6 40Z" fill="#326D80"/>
<path fill-rule="evenodd" clip-rule="evenodd" d="M34.4826 6H34.4826H13.5174H13.5174C11.9074 5.99998 10.5787 5.99996 9.49635 6.08839C8.37216 6.18024 7.33875 6.37737 6.36808 6.87195C4.86278 7.63894 3.63894 8.86278 2.87195 10.3681C2.37737 11.3387 2.18024 12.3722 2.08839 13.4964C1.99996 14.5787 1.99998 15.9074 2 17.5174V17.5174V30.4826V30.4826C1.99998 32.0926 1.99996 33.4213 2.08839 34.5037C2.18024 35.6278 2.37737 36.6613 2.87195 37.6319C3.63894 39.1372 4.86278 40.3611 6.36808 41.1281C7.33875 41.6226 8.37216 41.8198 9.49635 41.9116C10.5787 42 11.9074 42 13.5174 42H34.4827C36.0926 42 37.4213 42 38.5037 41.9116C39.6278 41.8198 40.6613 41.6226 41.6319 41.1281C43.1372 40.3611 44.3611 39.1372 45.1281 37.6319C45.6226 36.6613 45.8198 35.6278 45.9116 34.5037C46 33.4213 46 32.0926 46 30.4827V17.5174C46 15.9074 46 14.5787 45.9116 13.4964C45.8198 12.3722 45.6226 11.3387 45.1281 10.3681C44.3611 8.86278 43.1372 7.63894 41.6319 6.87195C40.6613 6.37737 39.6278 6.18024 38.5037 6.08839C37.4213 5.99996 36.0926 5.99998 34.4826 6ZM5.00003 17.6C5.00003 16.9801 5.00013 16.4249 5.00405 15.9235L19.7564 26.2501L19.9151 26.3613C21.0828 27.1794 21.8886 27.7441 22.7907 27.9689C23.5848 28.1669 24.4153 28.1669 25.2094 27.9689C26.1115 27.7441 26.9173 27.1794 28.085 26.3613L28.2436 26.2501L42.996 15.9235C42.9999 16.4249 43 16.9801 43 17.6V30.4C43 32.0967 42.9992 33.309 42.9216 34.2594C42.8449 35.198 42.6982 35.7927 42.4551 36.27C41.9757 37.2108 41.2108 37.9757 40.27 38.455C39.7927 38.6982 39.1981 38.8449 38.2594 38.9216C37.309 38.9992 36.0967 39 34.4 39H13.6C11.9034 39 10.691 38.9992 9.74067 38.9216C8.802 38.8449 8.20734 38.6982 7.73007 38.455C6.78926 37.9757 6.02436 37.2108 5.54499 36.27C5.30181 35.7927 5.15514 35.198 5.07845 34.2594C5.0008 33.309 5.00003 32.0967 5.00003 30.4V17.6ZM27.0967 24.6117L42.9043 13.5464C42.8237 12.7184 42.681 12.1735 42.4551 11.7301C41.9757 10.7892 41.2108 10.0243 40.27 9.54497C39.7927 9.30179 39.1981 9.15512 38.2594 9.07843C37.309 9.00078 36.0967 9 34.4 9H13.6C11.9034 9 10.691 9.00078 9.74067 9.07843C8.802 9.15512 8.20734 9.30179 7.73007 9.54497C6.78926 10.0243 6.02436 10.7892 5.54499 11.7301C5.31903 12.1735 5.17639 12.7184 5.0958 13.5464L20.9033 24.6117C22.2934 25.5847 22.7785 25.9047 23.2744 26.0283C23.7509 26.1471 24.2492 26.1471 24.7256 26.0283C25.2216 25.9047 25.7066 25.5847 27.0967 24.6117Z" fill="#326D80"/>
</svg>
