<svg width="48" height="48" viewBox="0 0 48 48" fill="none" xmlns="http://www.w3.org/2000/svg">
<path fill-rule="evenodd" clip-rule="evenodd" d="M9 2C6.79086 2 5 3.79086 5 6V42C5 44.2091 6.79086 46 9 46H39C41.2091 46 43 44.2091 43 42V15.4853C43 13.6288 42.2625 11.8483 40.9497 10.5355L34.4645 4.05025C33.1517 2.7375 31.3712 2 29.5147 2H9ZM9 5C8.44771 5 8 5.44771 8 6V42C8 42.5523 8.44771 43 9 43H39C39.5523 43 40 42.5523 40 42L39.9999 15.9999C39.9999 15.4477 39.5522 14.9999 38.9999 14.9999H31.9999C30.8953 14.9999 29.9999 14.1045 29.9999 12.9999V5.99995C29.9999 5.44766 29.5522 4.99995 28.9999 4.99995L9 5ZM32.8536 5.35355C32.5386 5.03857 32 5.26165 32 5.70711V12C32 12.5523 32.4477 13 33 13H39.2929C39.7383 13 39.9614 12.4614 39.6464 12.1464L32.8536 5.35355Z" fill="#535B65"/>
<path opacity="0.15" fill-rule="evenodd" clip-rule="evenodd" d="M9 4.99999C8.44771 4.99999 8 5.44771 8 5.99999V42C8 42.5523 8.44772 43 9 43H39C39.5523 43 40 42.5523 40 42L39.9999 15.9999C39.9999 15.4477 39.5522 14.9999 38.9999 14.9999H31.9999C30.8953 14.9999 29.9999 14.1045 29.9999 12.9999V5.99995C29.9999 5.44766 29.5522 4.99995 28.9999 4.99995L9 4.99999ZM22.7201 17.0944L14.3947 30.7178C13.7838 31.7174 14.5032 33 15.6746 33H32.3254C33.4968 33 34.2162 31.7174 33.6053 30.7178L25.2799 17.0944C24.695 16.1373 23.305 16.1373 22.7201 17.0944Z" fill="#535B65"/>
<path fill-rule="evenodd" clip-rule="evenodd" d="M24.4266 17.6159C24.2317 17.2968 23.7683 17.2968 23.5734 17.6159L15.2479 31.2393C15.0443 31.5725 15.2841 32 15.6746 32H32.3254C32.7159 32 32.9557 31.5725 32.752 31.2393L24.4266 17.6159ZM21.8668 16.573C22.8416 14.9778 25.1584 14.9778 26.1332 16.573L34.4586 30.1964C35.4767 31.8623 34.2777 34 32.3254 34H15.6746C13.7223 34 12.5233 31.8623 13.5414 30.1964L21.8668 16.573ZM24 22C24.5523 22 25 22.4477 25 23V26C25 26.5523 24.5523 27 24 27C23.4477 27 23 26.5523 23 26V23C23 22.4477 23.4477 22 24 22ZM24 30C24.5523 30 25 29.5523 25 29C25 28.4477 24.5523 28 24 28C23.4477 28 23 28.4477 23 29C23 29.5523 23.4477 30 24 30Z" fill="#535B65"/>
</svg>
