<svg width="48" height="48" viewBox="0 0 48 48" fill="none" xmlns="http://www.w3.org/2000/svg">
<path opacity="0.3" d="M34.4444 5L13.5556 5C11.9131 4.99999 10.6191 4.99999 9.57778 5.08507C8.51543 5.17186 7.62827 5.35217 6.82207 5.76295C5.50493 6.43407 4.43407 7.50493 3.76295 8.82207C3.35217 9.62827 3.17186 10.5154 3.08507 11.5778C2.99999 12.6191 2.99999 13.913 3 15.5556V16H45V15.5556C45 13.913 45 12.6191 44.9149 11.5778C44.8281 10.5154 44.6478 9.62827 44.237 8.82207C43.5659 7.50493 42.4951 6.43407 41.1779 5.76296C40.3717 5.35218 39.4846 5.17187 38.4222 5.08507C37.3809 4.99999 36.087 5 34.4444 5Z" fill="#326D80"/>
<path d="M16.2421 32.2459L18 25.75H16.1257L15.2177 30.3717L14.1118 25.75H12.0047L10.9104 30.3949L9.99069 25.75H8L9.7695 32.2459H11.9581L13.0175 28.0317L14.0419 32.2459H16.2421Z" fill="#326D80"/>
<path d="M27.2421 32.2459L29 25.75H27.1257L26.2177 30.3717L25.1118 25.75H23.0047L21.9104 30.3949L20.9907 25.75H19L20.7695 32.2459H22.9581L24.0175 28.0317L25.0419 32.2459H27.2421Z" fill="#326D80"/>
<path d="M40 25.75L38.2421 32.2459H36.0419L35.0175 28.0317L33.9581 32.2459H31.7695L30 25.75H31.9907L32.9104 30.3949L34.0047 25.75H36.1118L37.2177 30.3717L38.1257 25.75H40Z" fill="#326D80"/>
<path fill-rule="evenodd" clip-rule="evenodd" d="M46 32.4826C46 34.0926 46 35.4213 45.9116 36.5037C45.8198 37.6278 45.6226 38.6613 45.1281 39.6319C44.3611 41.1372 43.1372 42.3611 41.6319 43.1281C40.6613 43.6226 39.6278 43.8198 38.5037 43.9116C37.4213 44 36.0926 44 34.4827 44H13.5175C11.9075 44 10.5788 44 9.49635 43.9116C8.37215 43.8198 7.33875 43.6226 6.36808 43.128C4.86278 42.3611 3.63894 41.1372 2.87195 39.6319C2.37737 38.6612 2.18024 37.6278 2.08839 36.5036C1.99996 35.4213 1.99998 34.0925 2 32.4826V15.5174C1.99998 13.9075 1.99996 12.5787 2.08839 11.4964C2.18024 10.3722 2.37737 9.33875 2.87195 8.36808C3.63894 6.86278 4.86278 5.63894 6.36808 4.87195C7.33875 4.37737 8.37216 4.18024 9.49635 4.08839C10.5787 3.99996 11.9075 3.99998 13.5174 4L34.4826 4C36.0925 3.99998 37.4213 3.99996 38.5037 4.08839C39.6278 4.18024 40.6613 4.37737 41.6319 4.87195C43.1372 5.63894 44.3611 6.86278 45.1281 8.36808C45.6226 9.33875 45.8198 10.3722 45.9116 11.4964C46 12.5787 46 13.9074 46 15.5174V32.4826ZM5 17L5 32.4C5 34.0967 5.00078 35.309 5.07842 36.2593C5.15512 37.198 5.30179 37.7927 5.54497 38.2699C6.02433 39.2108 6.78924 39.9757 7.73005 40.455C8.20732 40.6982 8.80197 40.8449 9.74064 40.9216C10.691 40.9992 11.9033 41 13.6 41H34.4C36.0967 41 37.309 40.9992 38.2594 40.9216C39.198 40.8449 39.7927 40.6982 40.27 40.455C41.2108 39.9757 41.9757 39.2108 42.455 38.27C42.6982 37.7927 42.8449 37.198 42.9216 36.2594C42.9992 35.309 43 34.0967 43 32.4V17H5ZM42.9998 15H5.00017C5.00134 13.6113 5.01026 12.575 5.07843 11.7406C5.15512 10.802 5.30179 10.2073 5.54497 9.73005C6.02434 8.78924 6.78924 8.02433 7.73005 7.54497C8.20732 7.30179 8.80197 7.15512 9.74065 7.07842C10.691 7.00078 11.9033 7 13.6 7L34.4 7C36.0967 7 37.309 7.00078 38.2594 7.07843C39.198 7.15512 39.7927 7.30179 40.27 7.54497C41.2108 8.02434 41.9757 8.78924 42.455 9.73005C42.6982 10.2073 42.8449 10.802 42.9216 11.7406C42.9897 12.575 42.9987 13.6113 42.9998 15Z" fill="#326D80"/>
</svg>
