<svg width="24" height="24" viewBox="0 0 24 24" fill="none" xmlns="http://www.w3.org/2000/svg">
<path fill-rule="evenodd" clip-rule="evenodd" d="M12 2C9.28416 2 8.94362 2.01151 7.87701 2.06018C6.81263 2.10872 6.08569 2.27779 5.44962 2.52501C4.79203 2.78052 4.23436 3.12246 3.67839 3.67839C3.12246 4.23436 2.78052 4.79203 2.52501 5.44962C2.27779 6.08569 2.10872 6.81263 2.06018 7.87701C2.01151 8.94362 2 9.28416 2 12C2 14.7158 2.01151 15.0564 2.06018 16.123C2.10872 17.1874 2.27779 17.9143 2.52501 18.5504C2.78052 19.208 3.12246 19.7656 3.67839 20.3216C4.23436 20.8775 4.79203 21.2195 5.44962 21.475C6.08569 21.7222 6.81263 21.8913 7.87701 21.9398C8.94362 21.9885 9.28416 22 12 22C14.7158 22 15.0564 21.9885 16.123 21.9398C17.1874 21.8913 17.9143 21.7222 18.5504 21.475C19.208 21.2195 19.7656 20.8775 20.3216 20.3216C20.8775 19.7656 21.2195 19.208 21.475 18.5504C21.7222 17.9143 21.8913 17.1874 21.9398 16.123C21.9885 15.0564 22 14.7158 22 12C22 9.28416 21.9885 8.94362 21.9398 7.87701C21.8913 6.81263 21.7222 6.08569 21.475 5.44962C21.2195 4.79203 20.8775 4.23436 20.3216 3.67839C19.7656 3.12246 19.208 2.78052 18.5504 2.52501C17.9143 2.27779 17.1874 2.10872 16.123 2.06018C15.0564 2.01151 14.7158 2 12 2ZM12 3.8018C14.6701 3.8018 14.9864 3.812 16.0409 3.86011C17.0158 3.90457 17.5453 4.06748 17.8977 4.20443C18.3645 4.38583 18.6976 4.60253 19.0475 4.95248C19.3975 5.30239 19.6142 5.63551 19.7956 6.10229C19.9325 6.45466 20.0954 6.98415 20.1399 7.95914C20.188 9.0136 20.1982 9.32989 20.1982 12C20.1982 14.6701 20.188 14.9864 20.1399 16.0409C20.0954 17.0158 19.9325 17.5453 19.7956 17.8977C19.6142 18.3645 19.3975 18.6976 19.0475 19.0475C18.6976 19.3975 18.3645 19.6142 17.8977 19.7956C17.5453 19.9325 17.0158 20.0954 16.0409 20.1399C14.9866 20.188 14.6703 20.1982 12 20.1982C9.32969 20.1982 9.01348 20.188 7.95914 20.1399C6.98415 20.0954 6.45466 19.9325 6.10229 19.7956C5.63551 19.6142 5.30239 19.3975 4.95248 19.0475C4.60257 18.6976 4.38583 18.3645 4.20443 17.8977C4.06748 17.5453 3.90457 17.0158 3.86011 16.0409C3.812 14.9864 3.8018 14.6701 3.8018 12C3.8018 9.32989 3.812 9.0136 3.86011 7.95914C3.90457 6.98415 4.06748 6.45466 4.20443 6.10229C4.38583 5.63551 4.60253 5.30239 4.95248 4.95248C5.30239 4.60253 5.63551 4.38583 6.10229 4.20443C6.45466 4.06748 6.98415 3.90457 7.95914 3.86011C9.0136 3.812 9.32989 3.8018 12 3.8018ZM11.9999 15.3333C10.1589 15.3333 8.66654 13.841 8.66654 12C8.66654 10.159 10.1589 8.66666 11.9999 8.66666C13.8408 8.66666 15.3332 10.159 15.3332 12C15.3332 13.841 13.8408 15.3333 11.9999 15.3333ZM11.9999 6.86486C9.16381 6.86486 6.86475 9.16392 6.86475 12C6.86475 14.8361 9.16381 17.1351 11.9999 17.1351C14.836 17.1351 17.135 14.8361 17.135 12C17.135 9.16392 14.836 6.86486 11.9999 6.86486ZM17.3375 7.86121C18.0001 7.86121 18.5372 7.32415 18.5372 6.66161C18.5372 5.99907 18.0001 5.46197 17.3375 5.46197C16.675 5.46197 16.1379 5.99907 16.1379 6.66161C16.1379 7.32415 16.675 7.86121 17.3375 7.86121Z" fill="black"/>
</svg>
