<svg width="24" height="24" viewBox="0 0 24 24" fill="none" xmlns="http://www.w3.org/2000/svg">
<path d="M19.0406 19.041H16.0775V14.3991C16.0775 13.2923 16.0575 11.8671 14.536 11.8671C12.9927 11.8671 12.7563 13.0728 12.7563 14.3177V19.0406H9.79314V9.49736H12.6378V10.8017H12.6762C12.9609 10.3149 13.3723 9.9145 13.8666 9.64305C14.361 9.37161 14.9196 9.23932 15.4832 9.26027C18.4867 9.26027 19.0406 11.236 19.0406 13.806V19.041ZM6.44939 8.19262C6.10922 8.1927 5.77667 8.09189 5.4938 7.90296C5.21092 7.71403 4.99043 7.44546 4.8602 7.1312C4.72997 6.81695 4.69586 6.47114 4.76217 6.1375C4.82849 5.80386 4.99226 5.49738 5.23276 5.25682C5.47327 5.01626 5.77972 4.85242 6.11334 4.78603C6.44697 4.71964 6.79279 4.75367 7.10707 4.88383C7.42135 5.01399 7.68997 5.23443 7.87897 5.51726C8.06796 5.80009 8.16884 6.13262 8.16884 6.47279C8.16884 6.92885 7.98769 7.36624 7.66524 7.68876C7.3428 8.01128 6.90545 8.19252 6.44939 8.19262ZM7.93098 19.0406H4.96472V9.49736H7.93137L7.93098 19.0406ZM20.5165 2.00153H3.47546C3.28375 1.9992 3.09348 2.0347 2.91552 2.10601C2.73755 2.17732 2.57541 2.28303 2.43835 2.41709C2.3013 2.55114 2.19204 2.71092 2.11682 2.88726C2.0416 3.06361 2.0019 3.25305 2 3.44476V20.5549C2.00455 20.9419 2.16255 21.3113 2.43927 21.5819C2.71599 21.8525 3.08882 22.0022 3.47584 21.9981H20.5165C20.9045 22.0033 21.2788 21.8542 21.5569 21.5836C21.835 21.3129 21.9943 20.9429 21.9996 20.5549V3.44169C21.9941 3.05389 21.8347 2.68418 21.5565 2.41388C21.2784 2.14358 20.9043 1.99484 20.5165 2.00038" fill="black"/>
</svg>
