<svg width="24" height="24" viewBox="0 0 24 24" fill="none" xmlns="http://www.w3.org/2000/svg">
<path d="M11.8208 23H11.8142C8.5318 22.978 6.0084 21.8956 4.3122 19.7836C2.8052 17.9026 2.0264 15.2868 2 12.0088V11.9934C2.0264 8.7132 2.8052 6.0996 4.3144 4.2186C6.0084 2.1044 8.534 1.022 11.8142 1H11.8208H11.8274C14.3442 1.0176 16.4496 1.6644 18.0842 2.9228C19.622 4.1064 20.7044 5.7916 21.3006 7.9344L19.4306 8.4558C18.4186 4.8258 15.8578 2.9712 11.8186 2.9426C9.1522 2.9624 7.1348 3.8006 5.8236 5.433C4.5982 6.962 3.9646 9.1708 3.9404 12C3.9646 14.8292 4.5982 17.038 5.8258 18.567C7.137 20.2016 9.1544 21.0398 11.8208 21.0574C14.2254 21.0398 15.816 20.4788 17.1382 19.183C18.6474 17.7046 18.621 15.8896 18.137 14.7852C17.8532 14.134 17.3362 13.5928 16.6388 13.1814C16.4628 14.42 16.069 15.4232 15.4618 16.18C14.65 17.1898 13.4994 17.742 12.043 17.8212C10.9408 17.8806 9.8782 17.621 9.0554 17.0864C8.0808 16.455 7.511 15.4914 7.4494 14.3694C7.39 13.2782 7.8234 12.275 8.6682 11.5446C9.4756 10.8472 10.6108 10.438 11.9528 10.361C12.9406 10.306 13.8668 10.35 14.7204 10.4908C14.606 9.811 14.3772 9.2698 14.034 8.8804C13.5632 8.3436 12.835 8.0708 11.8714 8.0642C11.8626 8.0642 11.8538 8.0642 11.845 8.0642C11.0706 8.0642 10.019 8.2776 9.3502 9.2742L7.7398 8.194C8.6374 6.8608 10.0938 6.126 11.845 6.126C11.8582 6.126 11.8714 6.126 11.8846 6.126C14.8128 6.1436 16.5574 7.9366 16.7312 11.065C16.8302 11.1068 16.9292 11.1508 17.026 11.1948C18.3922 11.8372 19.391 12.8096 19.9168 14.0086C20.6472 15.6784 20.7154 18.3998 18.4978 20.5712C16.8016 22.23 14.7446 22.9802 11.8274 23H11.8208ZM12.7404 12.2838C12.5182 12.2838 12.2938 12.2904 12.0628 12.3036C10.3798 12.3982 9.3304 13.1704 9.3898 14.2682C9.4514 15.4188 10.7208 15.9534 11.9418 15.8874C13.0638 15.828 14.5246 15.3902 14.771 12.4862C14.1506 12.352 13.4708 12.2838 12.7404 12.2838Z" fill="#303233"/>
</svg>
