<svg width="24" height="24" viewBox="0 0 24 24" fill="none" xmlns="http://www.w3.org/2000/svg">
<path fill-rule="evenodd" clip-rule="evenodd" d="M9.54545 15.563V8.42605L15.8182 11.9947L9.54545 15.563ZM23.4985 6.18041C23.2225 5.14105 22.4092 4.32259 21.3766 4.04482C19.505 3.54 12 3.54 12 3.54C12 3.54 4.49496 3.54 2.62336 4.04482C1.59082 4.32259 0.777545 5.14105 0.501545 6.18041C0 8.06414 0 11.9945 0 11.9945C0 11.9945 0 15.9248 0.501545 17.8087C0.777545 18.848 1.59082 19.6665 2.62336 19.9444C4.49496 20.4491 12 20.4491 12 20.4491C12 20.4491 19.505 20.4491 21.3766 19.9444C22.4092 19.6665 23.2225 18.848 23.4985 17.8087C24 15.9248 24 11.9945 24 11.9945C24 11.9945 24 8.06414 23.4985 6.18041Z" fill="black"/>
</svg>
